<svg xmlns="http://www.w3.org/2000/svg" xmlns:xlink="http://www.w3.org/1999/xlink" width="500" zoomAndPan="magnify" viewBox="0 0 375 374.999991" height="500" preserveAspectRatio="xMidYMid meet" version="1.0"><defs><g/></defs><g fill="#545454" fill-opacity="1"><g transform="translate(101.528367, 335.891207)"><g><path d="M 44.09375 -10.46875 C 42.101562 -10.96875 40.046875 -11.523438 37.921875 -12.140625 C 35.804688 -12.765625 33.753906 -13.328125 31.765625 -13.828125 C 27.285156 -15.078125 23.546875 -16.695312 20.546875 -18.6875 C 18.804688 -19.925781 17.125 -21.296875 15.5 -22.796875 C 13.882812 -24.296875 12.207031 -25.789062 10.46875 -27.28125 C -7.21875 -43.226562 -14.070312 -63.160156 -10.09375 -87.078125 C -9.59375 -88.316406 -9.34375 -89.5625 -9.34375 -90.8125 C -9.34375 -92.0625 -9.21875 -93.179688 -8.96875 -94.171875 C -8.46875 -96.171875 -7.96875 -98.226562 -7.46875 -100.34375 C -6.976562 -102.457031 -6.234375 -104.265625 -5.234375 -105.765625 C -1.742188 -111.242188 2.175781 -116.222656 6.53125 -120.703125 C 10.894531 -125.191406 16.191406 -128.679688 22.421875 -131.171875 C 26.410156 -132.671875 30.394531 -133.484375 34.375 -133.609375 C 38.363281 -133.734375 42.351562 -132.796875 46.34375 -130.796875 C 49.582031 -129.054688 52.070312 -127.375 53.8125 -125.75 C 55.5625 -124.132812 54.816406 -121.582031 51.578125 -118.09375 L 47.46875 -113.609375 C 46.46875 -112.609375 45.71875 -111.984375 45.21875 -111.734375 C 43.726562 -111.492188 41.984375 -111.929688 39.984375 -113.046875 C 37.992188 -114.171875 36.25 -114.859375 34.75 -115.109375 C 30.269531 -115.847656 26.160156 -115.722656 22.421875 -114.734375 C 18.429688 -113.734375 14.816406 -111.613281 11.578125 -108.375 C 10.085938 -106.882812 8.84375 -105.203125 7.84375 -103.328125 C 6.851562 -101.460938 5.984375 -99.535156 5.234375 -97.546875 C 0.492188 -85.585938 -0.128906 -73.503906 3.359375 -61.296875 C 6.847656 -50.078125 13.140625 -41.476562 22.234375 -35.5 C 31.328125 -29.519531 41.601562 -26.53125 53.0625 -26.53125 C 59.539062 -26.53125 65.769531 -27.585938 71.75 -29.703125 C 77.726562 -31.828125 83.457031 -34.632812 88.9375 -38.125 C 97.664062 -43.351562 104.769531 -49.703125 110.25 -57.171875 C 115.726562 -64.648438 120.460938 -72.625 124.453125 -81.09375 C 127.941406 -88.070312 129.929688 -95.359375 130.421875 -102.953125 C 130.921875 -110.554688 130.175781 -118.21875 128.1875 -125.9375 C 125.945312 -136.15625 121.523438 -145.625 114.921875 -154.34375 C 108.316406 -163.0625 100.960938 -171.21875 92.859375 -178.8125 C 84.765625 -186.414062 76.984375 -193.707031 69.515625 -200.6875 C 68.015625 -201.6875 67.265625 -202.679688 67.265625 -203.671875 C 67.015625 -204.671875 67.140625 -205.664062 67.640625 -206.65625 C 68.140625 -207.65625 68.265625 -208.65625 68.015625 -209.65625 C 68.015625 -210.15625 67.703125 -210.710938 67.078125 -211.328125 C 66.453125 -211.953125 66.140625 -212.515625 66.140625 -213.015625 C 66.140625 -213.515625 66.328125 -214.820312 66.703125 -216.9375 C 67.078125 -219.0625 67.390625 -220.25 67.640625 -220.5 L 80.71875 -232.078125 C 82.46875 -233.828125 84.460938 -235.445312 86.703125 -236.9375 C 95.921875 -242.914062 105.328125 -248.332031 114.921875 -253.1875 C 124.515625 -258.050781 134.664062 -261.976562 145.375 -264.96875 C 149.113281 -266.207031 152.972656 -267.140625 156.953125 -267.765625 C 160.941406 -268.390625 164.929688 -268.453125 168.921875 -267.953125 C 178.140625 -267.203125 186.113281 -263.46875 192.84375 -256.75 L 193.59375 -256 C 196.082031 -253.257812 197.695312 -249.832031 198.4375 -245.71875 C 199.1875 -241.601562 199.8125 -237.804688 200.3125 -234.328125 C 200.8125 -231.085938 201.3125 -227.847656 201.8125 -224.609375 C 202.3125 -221.367188 199.941406 -219.5 194.703125 -219 C 192.210938 -218.75 190.40625 -219.554688 189.28125 -221.421875 C 188.164062 -223.296875 187.359375 -225.226562 186.859375 -227.21875 C 186.109375 -232.945312 185.421875 -238.113281 184.796875 -242.71875 C 184.179688 -247.332031 180.632812 -250.757812 174.15625 -253 C 170.664062 -254.25 167.050781 -254.75 163.3125 -254.5 C 159.570312 -254.25 155.960938 -253.75 152.484375 -253 C 145.503906 -252.007812 138.710938 -250.328125 132.109375 -247.953125 C 125.503906 -245.585938 119.210938 -242.664062 113.234375 -239.1875 C 110.742188 -237.4375 107.503906 -235.191406 103.515625 -232.453125 C 99.535156 -229.710938 96.109375 -226.597656 93.234375 -223.109375 C 90.367188 -219.617188 89.1875 -216.003906 89.6875 -212.265625 C 90.1875 -210.523438 90.929688 -208.78125 91.921875 -207.03125 C 92.921875 -205.289062 94.046875 -203.550781 95.296875 -201.8125 C 100.773438 -194.582031 106.441406 -187.789062 112.296875 -181.4375 C 118.148438 -175.082031 123.753906 -168.476562 129.109375 -161.625 C 134.472656 -154.78125 138.773438 -147.125 142.015625 -138.65625 C 143.753906 -134.414062 145.0625 -130.050781 145.9375 -125.5625 C 146.8125 -121.082031 147.617188 -116.597656 148.359375 -112.109375 C 148.859375 -108.867188 149.046875 -105.628906 148.921875 -102.390625 C 148.796875 -99.160156 147.863281 -96.171875 146.125 -93.421875 C 145.125 -91.679688 144.625 -89.8125 144.625 -87.8125 C 144.625 -85.820312 144.375 -83.832031 143.875 -81.84375 C 142.382812 -77.113281 140.144531 -72.753906 137.15625 -68.765625 C 133.914062 -63.535156 130.675781 -58.175781 127.4375 -52.6875 C 124.195312 -47.207031 119.960938 -42.597656 114.734375 -38.859375 C 113.734375 -38.117188 112.796875 -37.3125 111.921875 -36.4375 C 111.054688 -35.5625 110.25 -34.628906 109.5 -33.640625 C 108.5 -31.890625 107.375 -30.328125 106.125 -28.953125 C 104.882812 -27.585938 103.019531 -27.03125 100.53125 -27.28125 C 99.53125 -27.28125 98.78125 -26.90625 98.28125 -26.15625 C 96.539062 -24.414062 94.546875 -22.859375 92.296875 -21.484375 C 90.054688 -20.117188 87.816406 -18.8125 85.578125 -17.5625 C 81.597656 -15.570312 77.300781 -14.078125 72.6875 -13.078125 C 68.082031 -12.078125 63.660156 -11.332031 59.421875 -10.84375 L 58.296875 -10.84375 C 55.804688 -10.59375 53.441406 -10.40625 51.203125 -10.28125 C 48.960938 -10.15625 46.59375 -10.21875 44.09375 -10.46875 Z M 44.09375 -10.46875 "/></g></g></g></svg>