
<svg xmlns="http://www.w3.org/2000/svg" xmlns:xlink="http://www.w3.org/1999/xlink" width="500" zoomAndPan="magnify" viewBox="0 0 375 135.000003" height="180" preserveAspectRatio="xMidYMid meet" version="1.2"><defs><clipPath id="051b2b96b0"><path d="M 1.378906 1 L 111 1 L 111 134 L 1.378906 134 Z M 1.378906 1 "/></clipPath><clipPath id="8eaad1c09f"><path d="M 307 61 L 373.621094 61 L 373.621094 118 L 307 118 Z M 307 61 "/></clipPath></defs><g id="6ec0a90e56"><g clip-rule="nonzero" clip-path="url(#051b2b96b0)"><g style="fill:#9ca3af;fill-opacity:1;"><g transform="translate(7.317088, 138.290467)"><path style="stroke:none" d="M 22.46875 -5.328125 C 21.457031 -5.585938 20.410156 -5.875 19.328125 -6.1875 C 18.242188 -6.507812 17.195312 -6.796875 16.1875 -7.046875 C 13.90625 -7.679688 12 -8.503906 10.46875 -9.515625 C 9.582031 -10.148438 8.726562 -10.847656 7.90625 -11.609375 C 7.082031 -12.378906 6.222656 -13.144531 5.328125 -13.90625 C -3.679688 -22.03125 -7.171875 -32.1875 -5.140625 -44.375 C -4.890625 -45.007812 -4.765625 -45.640625 -4.765625 -46.265625 C -4.765625 -46.898438 -4.695312 -47.472656 -4.5625 -47.984375 C -4.3125 -49.003906 -4.054688 -50.050781 -3.796875 -51.125 C -3.546875 -52.207031 -3.171875 -53.128906 -2.671875 -53.890625 C -0.890625 -56.679688 1.109375 -59.21875 3.328125 -61.5 C 5.554688 -63.789062 8.253906 -65.570312 11.421875 -66.84375 C 13.453125 -67.601562 15.484375 -68.015625 17.515625 -68.078125 C 19.546875 -68.140625 21.578125 -67.660156 23.609375 -66.640625 C 25.265625 -65.753906 26.535156 -64.898438 27.421875 -64.078125 C 28.304688 -63.253906 27.925781 -61.953125 26.28125 -60.171875 L 24.1875 -57.890625 C 23.675781 -57.378906 23.296875 -57.0625 23.046875 -56.9375 C 22.285156 -56.8125 21.394531 -57.03125 20.375 -57.59375 C 19.363281 -58.164062 18.472656 -58.519531 17.703125 -58.65625 C 15.421875 -59.03125 13.328125 -58.960938 11.421875 -58.453125 C 9.390625 -57.953125 7.550781 -56.875 5.90625 -55.21875 C 5.144531 -54.457031 4.507812 -53.597656 4 -52.640625 C 3.488281 -51.691406 3.046875 -50.710938 2.671875 -49.703125 C 0.253906 -43.609375 -0.0625 -37.453125 1.71875 -31.234375 C 3.488281 -25.515625 6.691406 -21.128906 11.328125 -18.078125 C 15.960938 -15.035156 21.203125 -13.515625 27.046875 -13.515625 C 30.335938 -13.515625 33.503906 -14.050781 36.546875 -15.125 C 39.597656 -16.207031 42.523438 -17.640625 45.328125 -19.421875 C 49.765625 -22.085938 53.378906 -25.320312 56.171875 -29.125 C 58.960938 -32.9375 61.375 -37.003906 63.40625 -41.328125 C 65.1875 -44.878906 66.203125 -48.585938 66.453125 -52.453125 C 66.710938 -56.328125 66.332031 -60.234375 65.3125 -64.171875 C 64.164062 -69.378906 61.910156 -74.203125 58.546875 -78.640625 C 55.191406 -83.085938 51.445312 -87.242188 47.3125 -91.109375 C 43.1875 -94.984375 39.222656 -98.695312 35.421875 -102.25 C 34.660156 -102.757812 34.28125 -103.269531 34.28125 -103.78125 C 34.144531 -104.289062 34.203125 -104.796875 34.453125 -105.296875 C 34.710938 -105.804688 34.78125 -106.316406 34.65625 -106.828125 C 34.65625 -107.078125 34.492188 -107.359375 34.171875 -107.671875 C 33.859375 -107.992188 33.703125 -108.285156 33.703125 -108.546875 C 33.703125 -108.796875 33.796875 -109.457031 33.984375 -110.53125 C 34.179688 -111.613281 34.34375 -112.21875 34.46875 -112.34375 L 41.125 -118.25 C 42.019531 -119.132812 43.035156 -119.960938 44.171875 -120.734375 C 48.867188 -123.773438 53.660156 -126.53125 58.546875 -129 C 63.441406 -131.476562 68.617188 -133.484375 74.078125 -135.015625 C 75.984375 -135.648438 77.953125 -136.125 79.984375 -136.4375 C 82.015625 -136.75 84.046875 -136.78125 86.078125 -136.53125 C 90.765625 -136.15625 94.820312 -134.25 98.25 -130.8125 L 98.640625 -130.4375 C 99.910156 -129.039062 100.734375 -127.296875 101.109375 -125.203125 C 101.492188 -123.109375 101.8125 -121.171875 102.0625 -119.390625 C 102.320312 -117.742188 102.578125 -116.09375 102.828125 -114.4375 C 103.078125 -112.789062 101.867188 -111.84375 99.203125 -111.59375 C 97.941406 -111.457031 97.023438 -111.863281 96.453125 -112.8125 C 95.878906 -113.769531 95.460938 -114.757812 95.203125 -115.78125 C 94.828125 -118.695312 94.476562 -121.328125 94.15625 -123.671875 C 93.84375 -126.023438 92.035156 -127.773438 88.734375 -128.921875 C 86.960938 -129.554688 85.125 -129.804688 83.21875 -129.671875 C 81.3125 -129.546875 79.46875 -129.296875 77.6875 -128.921875 C 74.132812 -128.410156 70.675781 -127.550781 67.3125 -126.34375 C 63.945312 -125.132812 60.742188 -123.644531 57.703125 -121.875 C 56.429688 -120.976562 54.78125 -119.832031 52.75 -118.4375 C 50.71875 -117.039062 48.972656 -115.453125 47.515625 -113.671875 C 46.054688 -111.898438 45.453125 -110.0625 45.703125 -108.15625 C 45.953125 -107.269531 46.332031 -106.378906 46.84375 -105.484375 C 47.351562 -104.597656 47.925781 -103.710938 48.5625 -102.828125 C 51.351562 -99.148438 54.238281 -95.691406 57.21875 -92.453125 C 60.207031 -89.210938 63.066406 -85.847656 65.796875 -82.359375 C 68.523438 -78.867188 70.710938 -74.960938 72.359375 -70.640625 C 73.242188 -68.484375 73.910156 -66.257812 74.359375 -63.96875 C 74.804688 -61.6875 75.21875 -59.40625 75.59375 -57.125 C 75.851562 -55.476562 75.945312 -53.828125 75.875 -52.171875 C 75.8125 -50.523438 75.335938 -49.003906 74.453125 -47.609375 C 73.941406 -46.710938 73.6875 -45.753906 73.6875 -44.734375 C 73.6875 -43.722656 73.5625 -42.710938 73.3125 -41.703125 C 72.550781 -39.285156 71.410156 -37.0625 69.890625 -35.03125 C 68.234375 -32.363281 66.578125 -29.632812 64.921875 -26.84375 C 63.273438 -24.050781 61.117188 -21.703125 58.453125 -19.796875 C 57.953125 -19.421875 57.476562 -19.007812 57.03125 -18.5625 C 56.582031 -18.125 56.171875 -17.648438 55.796875 -17.140625 C 55.285156 -16.253906 54.710938 -15.457031 54.078125 -14.75 C 53.441406 -14.050781 52.488281 -13.769531 51.21875 -13.90625 C 50.71875 -13.90625 50.335938 -13.710938 50.078125 -13.328125 C 49.191406 -12.441406 48.175781 -11.648438 47.03125 -10.953125 C 45.894531 -10.253906 44.753906 -9.585938 43.609375 -8.953125 C 41.578125 -7.929688 39.382812 -7.164062 37.03125 -6.65625 C 34.6875 -6.15625 32.4375 -5.773438 30.28125 -5.515625 L 29.703125 -5.515625 C 28.429688 -5.390625 27.222656 -5.296875 26.078125 -5.234375 C 24.941406 -5.171875 23.738281 -5.203125 22.46875 -5.328125 Z M 22.46875 -5.328125 "/></g></g></g><g style="fill:#9ca3af;fill-opacity:1;"><g transform="translate(94.912249, 138.290467)"><path style="stroke:none" d="M 4.765625 -20.5625 C 3.742188 -19.925781 2.660156 -20.054688 1.515625 -20.953125 C -2.796875 -24.503906 -4.253906 -29.070312 -2.859375 -34.65625 C -2.347656 -36.300781 -1.804688 -37.945312 -1.234375 -39.59375 C -0.660156 -41.25 0.0664062 -42.84375 0.953125 -44.375 C 4.253906 -49.957031 7.9375 -55.191406 12 -60.078125 C 16.0625 -64.960938 20.628906 -69.375 25.703125 -73.3125 C 26.722656 -74.070312 27.800781 -74.769531 28.9375 -75.40625 C 30.082031 -76.039062 31.226562 -76.613281 32.375 -77.125 C 36.050781 -78.769531 39.570312 -78.515625 42.9375 -76.359375 C 46.300781 -74.203125 48.046875 -71.09375 48.171875 -67.03125 C 48.171875 -66.519531 48.171875 -66.039062 48.171875 -65.59375 C 48.171875 -65.15625 48.234375 -64.679688 48.359375 -64.171875 C 48.617188 -62.898438 48.523438 -61.753906 48.078125 -60.734375 C 47.640625 -59.722656 47.035156 -58.710938 46.265625 -57.703125 C 45.128906 -55.921875 44.144531 -54.109375 43.3125 -52.265625 C 42.488281 -50.429688 41.570312 -48.625 40.5625 -46.84375 L 34.078125 -34.65625 C 33.953125 -34.144531 33.664062 -33.476562 33.21875 -32.65625 C 32.78125 -31.832031 32.625 -31.101562 32.75 -30.46875 C 33.007812 -29.832031 33.488281 -29.832031 34.1875 -30.46875 C 34.882812 -31.101562 35.359375 -31.546875 35.609375 -31.796875 C 38.148438 -34.085938 40.785156 -36.179688 43.515625 -38.078125 C 46.242188 -39.984375 49.003906 -41.828125 51.796875 -43.609375 L 66.078125 -52.9375 C 67.472656 -53.820312 68.835938 -54.738281 70.171875 -55.6875 C 71.503906 -56.644531 72.867188 -57.503906 74.265625 -58.265625 C 74.898438 -58.648438 75.660156 -59.09375 76.546875 -59.59375 C 77.429688 -60.101562 78.066406 -60.234375 78.453125 -59.984375 C 79.847656 -59.222656 80.226562 -57.953125 79.59375 -56.171875 C 78.957031 -54.398438 77.941406 -53.003906 76.546875 -51.984375 C 76.421875 -51.859375 75.28125 -51 73.125 -49.40625 C 70.96875 -47.820312 68.394531 -45.984375 65.40625 -43.890625 C 62.425781 -41.796875 59.503906 -39.734375 56.640625 -37.703125 C 53.785156 -35.671875 51.472656 -34.082031 49.703125 -32.9375 C 47.410156 -31.289062 45.1875 -29.671875 43.03125 -28.078125 C 40.875 -26.492188 38.71875 -24.941406 36.5625 -23.421875 C 35.414062 -22.535156 34.082031 -21.898438 32.5625 -21.515625 C 30.144531 -20.753906 28.429688 -21.582031 27.421875 -24 C 26.910156 -25.132812 26.523438 -26.144531 26.265625 -27.03125 C 26.015625 -27.925781 26.082031 -29.453125 26.46875 -31.609375 C 26.71875 -33.890625 27.285156 -36.078125 28.171875 -38.171875 C 29.066406 -40.273438 29.390625 -41.328125 29.140625 -41.328125 C 28.628906 -41.328125 27.515625 -40.5625 25.796875 -39.03125 C 24.085938 -37.507812 22.148438 -35.734375 19.984375 -33.703125 C 17.828125 -31.671875 15.734375 -29.703125 13.703125 -27.796875 C 11.671875 -25.890625 10.148438 -24.429688 9.140625 -23.421875 C 8.503906 -22.910156 7.773438 -22.429688 6.953125 -21.984375 C 6.128906 -21.546875 5.398438 -21.070312 4.765625 -20.5625 Z M 5.140625 -31.234375 C 5.898438 -31.359375 6.597656 -31.675781 7.234375 -32.1875 C 7.742188 -32.3125 8.1875 -32.691406 8.5625 -33.328125 C 10.34375 -34.847656 12.085938 -36.398438 13.796875 -37.984375 C 15.515625 -39.578125 17.265625 -41.132812 19.046875 -42.65625 C 21.960938 -44.9375 24.65625 -47.378906 27.125 -49.984375 C 29.601562 -52.585938 32.050781 -55.222656 34.46875 -57.890625 C 36.5 -60.046875 38.335938 -62.265625 39.984375 -64.546875 C 41.003906 -65.941406 41.609375 -67.304688 41.796875 -68.640625 C 41.984375 -69.972656 41.695312 -70.957031 40.9375 -71.59375 C 39.800781 -72.488281 38.691406 -72.742188 37.609375 -72.359375 C 36.523438 -71.972656 35.476562 -71.46875 34.46875 -70.84375 C 32.4375 -69.570312 30.5 -68.203125 28.65625 -66.734375 C 26.8125 -65.273438 25.003906 -63.785156 23.234375 -62.265625 C 20.441406 -59.859375 17.867188 -57.128906 15.515625 -54.078125 C 13.171875 -51.035156 10.921875 -47.925781 8.765625 -44.75 C 7.492188 -43.101562 6.539062 -41.265625 5.90625 -39.234375 C 5.269531 -37.203125 4.820312 -35.039062 4.5625 -32.75 Z M 5.140625 -31.234375 "/></g></g><g style="fill:#9ca3af;fill-opacity:1;"><g transform="translate(160.037346, 138.290467)"><path style="stroke:none" d="M 35.984375 -87.96875 C 34.847656 -86.320312 33.644531 -86.320312 32.375 -87.96875 C 31.476562 -88.988281 31.03125 -90.035156 31.03125 -91.109375 C 31.03125 -92.191406 31.097656 -93.304688 31.234375 -94.453125 C 31.359375 -94.953125 31.515625 -95.394531 31.703125 -95.78125 C 31.890625 -96.164062 32.050781 -96.546875 32.1875 -96.921875 C 33.707031 -99.078125 35.195312 -101.296875 36.65625 -103.578125 C 38.113281 -105.867188 39.601562 -108.09375 41.125 -110.25 C 42.019531 -111.394531 43.164062 -112.285156 44.5625 -112.921875 C 45.695312 -113.554688 46.675781 -113.804688 47.5 -113.671875 C 48.332031 -113.546875 49.253906 -113.039062 50.265625 -112.15625 C 52.804688 -109.875 53.984375 -108.222656 53.796875 -107.203125 C 53.609375 -106.191406 52.050781 -104.925781 49.125 -103.40625 C 46.457031 -102.132812 44.175781 -100.035156 42.28125 -97.109375 Z M 4.5625 -21.515625 C 1.644531 -20.628906 -0.695312 -21.132812 -2.46875 -23.03125 C -4.25 -24.9375 -5.296875 -27.378906 -5.609375 -30.359375 C -5.929688 -33.347656 -5.519531 -35.921875 -4.375 -38.078125 C -2.46875 -41.640625 -0.4375 -45.164062 1.71875 -48.65625 C 3.875 -52.144531 6.15625 -55.476562 8.5625 -58.65625 C 9.457031 -59.914062 10.664062 -61.785156 12.1875 -64.265625 C 13.707031 -66.742188 15.351562 -69.03125 17.125 -71.125 C 18.90625 -73.21875 20.625 -74.328125 22.28125 -74.453125 C 23.289062 -74.703125 24.8125 -74.601562 26.84375 -74.15625 C 28.875 -73.71875 29.890625 -72.925781 29.890625 -71.78125 C 29.890625 -71.28125 29.128906 -70.519531 27.609375 -69.5 C 26.085938 -68.488281 25.132812 -67.789062 24.75 -67.40625 C 22.46875 -65.125 20.34375 -62.617188 18.375 -59.890625 C 16.40625 -57.160156 14.535156 -54.460938 12.765625 -51.796875 C 11.742188 -50.015625 10.628906 -48.265625 9.421875 -46.546875 C 8.210938 -44.835938 7.101562 -43.097656 6.09375 -41.328125 C 5.582031 -40.429688 5.101562 -39.472656 4.65625 -38.453125 C 4.21875 -37.441406 3.875 -36.429688 3.625 -35.421875 C 3.488281 -34.523438 3.453125 -33.503906 3.515625 -32.359375 C 3.585938 -31.222656 4.382812 -31.097656 5.90625 -31.984375 C 8.0625 -33.378906 10.21875 -34.742188 12.375 -36.078125 C 14.53125 -37.410156 16.625 -38.773438 18.65625 -40.171875 C 20.820312 -41.578125 23.425781 -43.257812 26.46875 -45.21875 C 29.507812 -47.1875 32.519531 -49.15625 35.5 -51.125 C 38.488281 -53.09375 41 -54.742188 43.03125 -56.078125 C 45.0625 -57.410156 46.140625 -58.140625 46.265625 -58.265625 C 46.898438 -58.648438 47.691406 -59.09375 48.640625 -59.59375 C 49.597656 -60.101562 50.269531 -60.234375 50.65625 -59.984375 C 52.050781 -59.222656 52.429688 -57.953125 51.796875 -56.171875 C 51.160156 -54.398438 50.144531 -53.003906 48.75 -51.984375 C 48.488281 -51.859375 47.3125 -51 45.21875 -49.40625 C 43.125 -47.820312 40.550781 -45.984375 37.5 -43.890625 C 34.457031 -41.796875 31.507812 -39.734375 28.65625 -37.703125 C 25.800781 -35.671875 23.484375 -34.082031 21.703125 -32.9375 C 19.546875 -31.289062 17.359375 -29.671875 15.140625 -28.078125 C 12.921875 -26.492188 10.726562 -24.941406 8.5625 -23.421875 C 8.0625 -22.910156 7.425781 -22.53125 6.65625 -22.28125 C 5.894531 -22.03125 5.195312 -21.773438 4.5625 -21.515625 Z M 4.5625 -21.515625 "/></g></g><g style="fill:#9ca3af;fill-opacity:1;"><g transform="translate(198.503033, 138.290467)"><path style="stroke:none" d="M 35.03125 -19.609375 C 34.019531 -19.867188 33.257812 -20.628906 32.75 -21.890625 C 32.238281 -23.160156 31.953125 -24.554688 31.890625 -26.078125 C 31.828125 -27.609375 31.988281 -28.691406 32.375 -29.328125 C 35.289062 -34.660156 37.382812 -38.660156 38.65625 -41.328125 C 39.925781 -43.992188 40.910156 -46.085938 41.609375 -47.609375 C 42.304688 -49.128906 43.128906 -50.773438 44.078125 -52.546875 C 45.035156 -54.328125 46.53125 -56.992188 48.5625 -60.546875 C 49.0625 -61.316406 48.960938 -61.921875 48.265625 -62.359375 C 47.566406 -62.804688 46.648438 -62.835938 45.515625 -62.453125 C 41.191406 -59.660156 36.648438 -56.707031 31.890625 -53.59375 C 27.128906 -50.488281 22.71875 -47.347656 18.65625 -44.171875 C 17.007812 -42.910156 15.328125 -41.675781 13.609375 -40.46875 C 11.898438 -39.257812 10.347656 -37.765625 8.953125 -35.984375 C 7.679688 -34.210938 6.535156 -32.117188 5.515625 -29.703125 C 4.503906 -27.296875 3.109375 -25.394531 1.328125 -24 C -0.0664062 -22.976562 -1.523438 -22.722656 -3.046875 -23.234375 C -4.566406 -23.742188 -5.457031 -24.25 -5.71875 -24.75 C -6.601562 -26.144531 -6.914062 -27.765625 -6.65625 -29.609375 C -6.40625 -31.453125 -5.960938 -33.195312 -5.328125 -34.84375 C -4.441406 -36.75 -3.425781 -38.585938 -2.28125 -40.359375 C -1.144531 -42.140625 -0.128906 -43.921875 0.765625 -45.703125 C 2.285156 -48.742188 4.09375 -51.628906 6.1875 -54.359375 C 8.28125 -57.085938 10.34375 -59.851562 12.375 -62.65625 C 14.53125 -65.445312 16.53125 -68.363281 18.375 -71.40625 C 20.21875 -74.457031 22.023438 -77.503906 23.796875 -80.546875 C 24.816406 -81.566406 25.738281 -82.078125 26.5625 -82.078125 C 27.382812 -82.078125 28.429688 -81.628906 29.703125 -80.734375 C 31.097656 -79.847656 31.632812 -78.609375 31.3125 -77.015625 C 31 -75.429688 30.273438 -73.816406 29.140625 -72.171875 C 27.109375 -69.378906 25.140625 -66.550781 23.234375 -63.6875 C 21.328125 -60.832031 19.359375 -57.945312 17.328125 -55.03125 C 16.441406 -53.757812 16.09375 -52.960938 16.28125 -52.640625 C 16.46875 -52.328125 16.5625 -51.726562 16.5625 -50.84375 C 17.195312 -50.84375 17.578125 -50.90625 17.703125 -51.03125 C 18.847656 -51.789062 19.988281 -52.550781 21.125 -53.3125 C 22.269531 -54.070312 23.351562 -54.898438 24.375 -55.796875 C 28.050781 -58.835938 31.859375 -61.628906 35.796875 -64.171875 C 39.734375 -66.710938 43.671875 -69.1875 47.609375 -71.59375 C 48.617188 -72.226562 49.789062 -72.894531 51.125 -73.59375 C 52.457031 -74.289062 53.695312 -74.832031 54.84375 -75.21875 C 56.238281 -75.59375 57.789062 -75.617188 59.5 -75.296875 C 61.21875 -74.984375 62.710938 -74.703125 63.984375 -74.453125 C 64.234375 -74.328125 64.546875 -74.203125 64.921875 -74.078125 C 65.304688 -73.953125 65.566406 -73.695312 65.703125 -73.3125 C 65.703125 -73.0625 65.632812 -72.804688 65.5 -72.546875 C 65.375 -72.035156 65.179688 -71.585938 64.921875 -71.203125 C 64.671875 -70.828125 64.421875 -70.453125 64.171875 -70.078125 C 63.410156 -68.929688 62.613281 -67.785156 61.78125 -66.640625 C 60.957031 -65.503906 60.234375 -64.300781 59.609375 -63.03125 C 59.097656 -62.269531 58.679688 -61.378906 58.359375 -60.359375 C 58.046875 -59.347656 57.632812 -58.332031 57.125 -57.3125 L 52.9375 -49.703125 L 48.9375 -42.65625 C 48.550781 -41.769531 48.132812 -40.910156 47.6875 -40.078125 C 47.25 -39.253906 46.84375 -38.398438 46.46875 -37.515625 C 45.957031 -36.242188 46.238281 -35.671875 47.3125 -35.796875 C 48.394531 -35.921875 49.191406 -36.113281 49.703125 -36.375 C 55.796875 -39.414062 61.570312 -43.09375 67.03125 -47.40625 C 72.488281 -51.726562 78.203125 -55.476562 84.171875 -58.65625 C 84.929688 -59.03125 85.753906 -59.503906 86.640625 -60.078125 C 87.523438 -60.648438 88.160156 -60.804688 88.546875 -60.546875 C 89.941406 -59.660156 90.320312 -58.328125 89.6875 -56.546875 C 89.050781 -54.773438 88.035156 -53.378906 86.640625 -52.359375 C 86.390625 -52.234375 85.21875 -51.378906 83.125 -49.796875 C 81.03125 -48.210938 78.488281 -46.367188 75.5 -44.265625 C 72.519531 -42.171875 69.597656 -40.109375 66.734375 -38.078125 C 63.878906 -36.046875 61.566406 -34.460938 59.796875 -33.328125 C 55.734375 -30.535156 51.890625 -27.773438 48.265625 -25.046875 C 44.648438 -22.316406 40.238281 -20.503906 35.03125 -19.609375 Z M 35.03125 -19.609375 "/></g></g><g style="fill:#9ca3af;fill-opacity:1;"><g transform="translate(273.149303, 138.290467)"><path style="stroke:none" d="M 4 -21.515625 C 2.34375 -21.003906 0.691406 -21.320312 -0.953125 -22.46875 C -2.597656 -23.613281 -3.929688 -24.820312 -4.953125 -26.09375 C -5.203125 -26.46875 -5.457031 -27.035156 -5.71875 -27.796875 C -5.71875 -28.554688 -5.648438 -29.191406 -5.515625 -29.703125 C -4.253906 -34.648438 -2.414062 -39.441406 0 -44.078125 C 2.414062 -48.710938 4.953125 -53.1875 7.609375 -57.5 C 9.390625 -60.425781 11.164062 -63.253906 12.9375 -65.984375 C 14.71875 -68.710938 16.5 -71.472656 18.28125 -74.265625 C 18.664062 -74.898438 19.554688 -76.164062 20.953125 -78.0625 C 22.347656 -79.96875 23.710938 -81.9375 25.046875 -83.96875 C 26.378906 -86 27.234375 -87.523438 27.609375 -88.546875 C 27.734375 -88.796875 27.796875 -89.175781 27.796875 -89.6875 C 27.546875 -90.570312 26.976562 -90.890625 26.09375 -90.640625 C 25.195312 -90.515625 24.429688 -90.320312 23.796875 -90.0625 C 23.160156 -89.8125 22.398438 -89.625 21.515625 -89.5 C 20.628906 -89.5 19.421875 -89.367188 17.890625 -89.109375 C 16.367188 -88.859375 15.164062 -88.863281 14.28125 -89.125 C 13.007812 -89.625 12.628906 -90.757812 13.140625 -92.53125 C 13.648438 -94.3125 14.601562 -95.269531 16 -95.40625 C 17.769531 -95.65625 19.445312 -95.90625 21.03125 -96.15625 C 22.625 -96.414062 24.242188 -96.609375 25.890625 -96.734375 C 27.546875 -96.984375 29.195312 -97.519531 30.84375 -98.34375 C 32.5 -99.175781 33.960938 -100.035156 35.234375 -100.921875 C 35.867188 -101.554688 36.4375 -102.191406 36.9375 -102.828125 C 37.445312 -103.460938 37.894531 -104.097656 38.28125 -104.734375 C 39.539062 -106.765625 40.425781 -108.222656 40.9375 -109.109375 C 41.445312 -109.992188 41.890625 -110.722656 42.265625 -111.296875 C 42.648438 -111.867188 43.097656 -112.664062 43.609375 -113.6875 C 44.242188 -115.207031 45.066406 -116.285156 46.078125 -116.921875 C 47.097656 -117.554688 48.113281 -117.523438 49.125 -116.828125 C 50.144531 -116.128906 50.972656 -115.460938 51.609375 -114.828125 C 52.367188 -113.804688 52.648438 -112.753906 52.453125 -111.671875 C 52.265625 -110.597656 51.851562 -109.554688 51.21875 -108.546875 C 50.71875 -107.773438 50.019531 -106.847656 49.125 -105.765625 C 48.238281 -104.691406 47.734375 -103.644531 47.609375 -102.625 C 47.484375 -101.613281 48.242188 -100.789062 49.890625 -100.15625 C 50.398438 -100.03125 50.875 -99.96875 51.3125 -99.96875 C 51.757812 -99.96875 52.238281 -99.96875 52.75 -99.96875 C 54.65625 -99.96875 56.554688 -99.773438 58.453125 -99.390625 C 60.359375 -99.015625 62.007812 -98.191406 63.40625 -96.921875 C 63.664062 -96.671875 63.796875 -96.414062 63.796875 -96.15625 C 63.796875 -95.90625 63.726562 -95.71875 63.59375 -95.59375 L 63.03125 -94.640625 L 62.078125 -92.921875 C 61.441406 -91.785156 60.742188 -91.085938 59.984375 -90.828125 C 59.734375 -90.703125 59.445312 -90.671875 59.125 -90.734375 C 58.8125 -90.796875 58.523438 -90.828125 58.265625 -90.828125 C 56.234375 -91.085938 54.234375 -91.25 52.265625 -91.3125 C 50.296875 -91.375 48.296875 -91.34375 46.265625 -91.21875 C 45.640625 -91.21875 45.007812 -91.21875 44.375 -91.21875 C 43.738281 -91.21875 43.101562 -91.085938 42.46875 -90.828125 C 40.9375 -90.316406 39.757812 -89.519531 38.9375 -88.4375 C 38.113281 -87.363281 37.195312 -86.320312 36.1875 -85.3125 C 35.164062 -84.164062 34.175781 -83.050781 33.21875 -81.96875 C 32.269531 -80.894531 31.351562 -79.722656 30.46875 -78.453125 C 29.445312 -76.929688 28.460938 -75.375 27.515625 -73.78125 C 26.566406 -72.195312 25.582031 -70.582031 24.5625 -68.9375 C 23.675781 -67.539062 22.851562 -66.078125 22.09375 -64.546875 C 21.332031 -63.023438 20.441406 -61.566406 19.421875 -60.171875 C 16.878906 -56.234375 14.71875 -52.070312 12.9375 -47.6875 C 11.164062 -43.3125 9.203125 -39.03125 7.046875 -34.84375 C 6.921875 -34.71875 6.859375 -34.53125 6.859375 -34.28125 C 6.859375 -34.019531 6.984375 -33.890625 7.234375 -33.890625 C 7.742188 -33.765625 8.21875 -33.796875 8.65625 -33.984375 C 9.101562 -34.179688 9.519531 -34.40625 9.90625 -34.65625 C 15.613281 -38.71875 21.484375 -42.71875 27.515625 -46.65625 C 33.546875 -50.59375 39.546875 -54.398438 45.515625 -58.078125 L 45.703125 -58.265625 C 46.335938 -58.648438 47.097656 -59.09375 47.984375 -59.59375 C 48.867188 -60.101562 49.503906 -60.234375 49.890625 -59.984375 C 51.285156 -59.222656 51.664062 -57.953125 51.03125 -56.171875 C 50.394531 -54.398438 49.378906 -53.003906 47.984375 -51.984375 C 47.859375 -51.859375 46.71875 -51 44.5625 -49.40625 C 42.40625 -47.820312 39.832031 -45.984375 36.84375 -43.890625 C 33.863281 -41.796875 30.941406 -39.734375 28.078125 -37.703125 C 25.222656 -35.671875 22.910156 -34.082031 21.140625 -32.9375 C 18.847656 -31.289062 16.625 -29.671875 14.46875 -28.078125 C 12.3125 -26.492188 10.15625 -24.941406 8 -23.421875 C 6.851562 -22.535156 5.519531 -21.898438 4 -21.515625 Z M 4 -21.515625 "/></g></g><g clip-rule="nonzero" clip-path="url(#8eaad1c09f)"><g style="fill:#9ca3af;fill-opacity:1;"><g transform="translate(311.043709, 138.290467)"><path style="stroke:none" d="M 1.140625 -21.328125 C -0.128906 -21.835938 -1.269531 -22.945312 -2.28125 -24.65625 C -3.300781 -26.375 -3.8125 -28.25 -3.8125 -30.28125 L -3.625 -31.984375 C -3.75 -33.765625 -3.554688 -35.507812 -3.046875 -37.21875 C -2.535156 -38.9375 -1.835938 -40.625 -0.953125 -42.28125 C 0.441406 -44.8125 1.804688 -47.410156 3.140625 -50.078125 C 4.472656 -52.742188 5.898438 -55.285156 7.421875 -57.703125 C 8.816406 -59.984375 10.304688 -62.265625 11.890625 -64.546875 C 13.484375 -66.835938 15.171875 -69 16.953125 -71.03125 C 18.347656 -72.425781 19.898438 -73.757812 21.609375 -75.03125 C 23.328125 -76.300781 25.390625 -76.425781 27.796875 -75.40625 C 28.941406 -74.894531 29.800781 -74.546875 30.375 -74.359375 C 30.945312 -74.171875 31.613281 -73.566406 32.375 -72.546875 C 32.5 -72.546875 33.128906 -72.515625 34.265625 -72.453125 C 35.410156 -72.390625 36.648438 -72.359375 37.984375 -72.359375 C 39.316406 -72.359375 40.300781 -72.359375 40.9375 -72.359375 C 42.84375 -72.359375 45.191406 -72.421875 47.984375 -72.546875 C 50.773438 -72.671875 53.34375 -72.765625 55.6875 -72.828125 C 58.039062 -72.898438 59.410156 -72.9375 59.796875 -72.9375 C 61.566406 -72.9375 62.390625 -72.457031 62.265625 -71.5 C 62.140625 -70.550781 61.566406 -69.628906 60.546875 -68.734375 C 59.535156 -67.847656 58.648438 -67.34375 57.890625 -67.21875 C 56.617188 -67.21875 54.773438 -67.117188 52.359375 -66.921875 C 49.953125 -66.734375 47.539062 -66.578125 45.125 -66.453125 C 42.71875 -66.328125 40.878906 -66.265625 39.609375 -66.265625 C 37.453125 -66.265625 35.957031 -66.171875 35.125 -65.984375 C 34.300781 -65.796875 33.765625 -65.191406 33.515625 -64.171875 C 33.265625 -63.160156 32.882812 -61.445312 32.375 -59.03125 C 31.613281 -55.726562 30.40625 -52.617188 28.75 -49.703125 C 27.101562 -46.785156 25.390625 -43.925781 23.609375 -41.125 C 21.578125 -38.332031 19.351562 -35.601562 16.9375 -32.9375 C 14.53125 -30.269531 12.1875 -27.601562 9.90625 -24.9375 L 9.515625 -24.375 C 8.242188 -23.226562 6.972656 -22.304688 5.703125 -21.609375 C 4.441406 -20.910156 2.921875 -20.816406 1.140625 -21.328125 Z M 6.859375 -35.234375 C 7.234375 -35.484375 7.609375 -35.671875 7.984375 -35.796875 C 8.367188 -35.921875 8.691406 -36.113281 8.953125 -36.375 C 11.992188 -39.289062 14.71875 -42.460938 17.125 -45.890625 C 19.539062 -49.316406 21.765625 -52.875 23.796875 -56.5625 C 24.304688 -57.445312 24.6875 -58.394531 24.9375 -59.40625 C 25.195312 -60.425781 25.453125 -61.441406 25.703125 -62.453125 C 25.828125 -62.710938 25.796875 -63.03125 25.609375 -63.40625 C 25.421875 -63.789062 25.195312 -64.171875 24.9375 -64.546875 C 24.175781 -64.296875 23.671875 -64.046875 23.421875 -63.796875 C 19.609375 -60.234375 16.398438 -56.226562 13.796875 -51.78125 C 11.203125 -47.34375 8.757812 -42.84375 6.46875 -38.28125 C 6.21875 -37.507812 6.09375 -36.875 6.09375 -36.375 C 6.09375 -36.375 6.347656 -35.992188 6.859375 -35.234375 Z M 6.859375 -35.234375 "/></g></g></g><g style="fill:#9ca3af;fill-opacity:1;"><g transform="translate(350.461497, 138.290467)"><path style="stroke:none" d="M 9.328125 -22.28125 C 8.316406 -21.394531 7.207031 -21.234375 6 -21.796875 C 4.789062 -22.367188 3.488281 -23.351562 2.09375 -24.75 C 1.332031 -25.382812 0.789062 -26.238281 0.46875 -27.3125 C 0.15625 -28.394531 0 -29.445312 0 -30.46875 C 0.25 -33.132812 1.226562 -34.625 2.9375 -34.9375 C 4.65625 -35.257812 6.46875 -34.878906 8.375 -33.796875 C 10.28125 -32.722656 11.550781 -31.234375 12.1875 -29.328125 C 12.4375 -27.671875 12.304688 -26.332031 11.796875 -25.3125 C 11.296875 -24.300781 10.472656 -23.289062 9.328125 -22.28125 Z M 9.328125 -22.28125 "/></g></g></g></svg>