<svg xmlns="http://www.w3.org/2000/svg" xmlns:xlink="http://www.w3.org/1999/xlink" width="500" zoomAndPan="magnify" viewBox="0 0 375 160" height="300" preserveAspectRatio="xMidYMid meet" version="1.0">
   <defs/>
  <g id="9e113cef21">
    <g style="fill:#505050;fill-opacity:1;">
      <g transform="translate(6.702186, 147.115732)">
        <path style="stroke:none" d="M 22.46875 -5.328125 C 21.457031 -5.585938 20.410156 -5.875 19.328125 -6.1875 C 18.253906 -6.507812 17.207031 -6.796875 16.1875 -7.046875 C 13.90625 -7.679688 12 -8.503906 10.46875 -9.515625 C 9.582031 -10.148438 8.726562 -10.847656 7.90625 -11.609375 C 7.082031 -12.378906 6.222656 -13.144531 5.328125 -13.90625 C -3.679688 -22.03125 -7.171875 -32.1875 -5.140625 -44.375 C -4.890625 -45.007812 -4.765625 -45.644531 -4.765625 -46.28125 C -4.765625 -46.914062 -4.703125 -47.488281 -4.578125 -48 C -4.316406 -49.007812 -4.054688 -50.050781 -3.796875 -51.125 C -3.546875 -52.207031 -3.171875 -53.128906 -2.671875 -53.890625 C -0.890625 -56.691406 1.109375 -59.234375 3.328125 -61.515625 C 5.554688 -63.796875 8.253906 -65.570312 11.421875 -66.84375 C 13.453125 -67.601562 15.484375 -68.015625 17.515625 -68.078125 C 19.546875 -68.148438 21.578125 -67.675781 23.609375 -66.65625 C 25.265625 -65.769531 26.535156 -64.910156 27.421875 -64.078125 C 28.316406 -63.253906 27.9375 -61.957031 26.28125 -60.1875 L 24.1875 -57.890625 C 23.675781 -57.390625 23.296875 -57.078125 23.046875 -56.953125 C 22.285156 -56.816406 21.394531 -57.035156 20.375 -57.609375 C 19.363281 -58.179688 18.476562 -58.53125 17.71875 -58.65625 C 15.425781 -59.039062 13.328125 -58.976562 11.421875 -58.46875 C 9.390625 -57.957031 7.550781 -56.878906 5.90625 -55.234375 C 5.144531 -54.472656 4.507812 -53.613281 4 -52.65625 C 3.488281 -51.707031 3.046875 -50.722656 2.671875 -49.703125 C 0.253906 -43.609375 -0.0625 -37.453125 1.71875 -31.234375 C 3.488281 -25.515625 6.691406 -21.128906 11.328125 -18.078125 C 15.960938 -15.035156 21.203125 -13.515625 27.046875 -13.515625 C 30.347656 -13.515625 33.519531 -14.054688 36.5625 -15.140625 C 39.613281 -16.222656 42.535156 -17.648438 45.328125 -19.421875 C 49.773438 -22.085938 53.394531 -25.328125 56.1875 -29.140625 C 58.976562 -32.953125 61.390625 -37.015625 63.421875 -41.328125 C 65.203125 -44.878906 66.21875 -48.59375 66.46875 -52.46875 C 66.71875 -56.34375 66.335938 -60.25 65.328125 -64.1875 C 64.179688 -69.382812 61.925781 -74.207031 58.5625 -78.65625 C 55.195312 -83.101562 51.453125 -87.257812 47.328125 -91.125 C 43.203125 -95 39.234375 -98.710938 35.421875 -102.265625 C 34.660156 -102.773438 34.28125 -103.285156 34.28125 -103.796875 C 34.15625 -104.304688 34.21875 -104.8125 34.46875 -105.3125 C 34.726562 -105.820312 34.789062 -106.332031 34.65625 -106.84375 C 34.65625 -107.09375 34.492188 -107.375 34.171875 -107.6875 C 33.859375 -108.007812 33.703125 -108.300781 33.703125 -108.5625 C 33.703125 -108.8125 33.796875 -109.472656 33.984375 -110.546875 C 34.179688 -111.628906 34.34375 -112.238281 34.46875 -112.375 L 41.140625 -118.265625 C 42.023438 -119.160156 43.039062 -119.988281 44.1875 -120.75 C 48.882812 -123.789062 53.675781 -126.550781 58.5625 -129.03125 C 63.445312 -131.507812 68.625 -133.507812 74.09375 -135.03125 C 75.988281 -135.664062 77.953125 -136.140625 79.984375 -136.453125 C 82.015625 -136.773438 84.046875 -136.8125 86.078125 -136.5625 C 90.773438 -136.175781 94.84375 -134.269531 98.28125 -130.84375 L 98.65625 -130.453125 C 99.925781 -129.054688 100.75 -127.3125 101.125 -125.21875 C 101.507812 -123.125 101.828125 -121.191406 102.078125 -119.421875 C 102.335938 -117.765625 102.59375 -116.109375 102.84375 -114.453125 C 103.09375 -112.804688 101.882812 -111.859375 99.21875 -111.609375 C 97.957031 -111.484375 97.039062 -111.894531 96.46875 -112.84375 C 95.894531 -113.789062 95.476562 -114.773438 95.21875 -115.796875 C 94.84375 -118.710938 94.492188 -121.34375 94.171875 -123.6875 C 93.859375 -126.039062 92.050781 -127.789062 88.75 -128.9375 C 86.96875 -129.570312 85.125 -129.828125 83.21875 -129.703125 C 81.320312 -129.578125 79.484375 -129.320312 77.703125 -128.9375 C 74.148438 -128.425781 70.691406 -127.566406 67.328125 -126.359375 C 63.960938 -125.160156 60.753906 -123.671875 57.703125 -121.890625 C 56.429688 -121.003906 54.78125 -119.859375 52.75 -118.453125 C 50.71875 -117.054688 48.972656 -115.46875 47.515625 -113.6875 C 46.054688 -111.914062 45.453125 -110.078125 45.703125 -108.171875 C 45.960938 -107.285156 46.34375 -106.394531 46.84375 -105.5 C 47.351562 -104.613281 47.925781 -103.726562 48.5625 -102.84375 C 51.351562 -99.164062 54.238281 -95.707031 57.21875 -92.46875 C 60.207031 -89.226562 63.066406 -85.863281 65.796875 -82.375 C 68.523438 -78.882812 70.71875 -74.976562 72.375 -70.65625 C 73.257812 -68.5 73.921875 -66.273438 74.359375 -63.984375 C 74.804688 -61.703125 75.222656 -59.421875 75.609375 -57.140625 C 75.859375 -55.484375 75.953125 -53.828125 75.890625 -52.171875 C 75.828125 -50.523438 75.351562 -49.003906 74.46875 -47.609375 C 73.957031 -46.722656 73.703125 -45.769531 73.703125 -44.75 C 73.703125 -43.738281 73.578125 -42.722656 73.328125 -41.703125 C 72.566406 -39.296875 71.421875 -37.078125 69.890625 -35.046875 C 68.242188 -32.378906 66.59375 -29.644531 64.9375 -26.84375 C 63.289062 -24.050781 61.132812 -21.707031 58.46875 -19.8125 C 57.957031 -19.425781 57.476562 -19.007812 57.03125 -18.5625 C 56.59375 -18.125 56.179688 -17.648438 55.796875 -17.140625 C 55.296875 -16.253906 54.726562 -15.460938 54.09375 -14.765625 C 53.457031 -14.066406 52.503906 -13.78125 51.234375 -13.90625 C 50.722656 -13.90625 50.34375 -13.710938 50.09375 -13.328125 C 49.195312 -12.441406 48.175781 -11.648438 47.03125 -10.953125 C 45.894531 -10.253906 44.753906 -9.585938 43.609375 -8.953125 C 41.578125 -7.929688 39.382812 -7.164062 37.03125 -6.65625 C 34.6875 -6.15625 32.4375 -5.773438 30.28125 -5.515625 L 29.703125 -5.515625 C 28.441406 -5.390625 27.238281 -5.296875 26.09375 -5.234375 C 24.945312 -5.171875 23.738281 -5.203125 22.46875 -5.328125 Z M 22.46875 -5.328125 "/>
      </g>
    </g>
    <g style="fill:#505050;fill-opacity:1;">
      <g transform="translate(94.313389, 147.115732)">
        <path style="stroke:none" d="M 4.765625 -20.5625 C 3.742188 -19.925781 2.664062 -20.054688 1.53125 -20.953125 C -2.789062 -24.503906 -4.253906 -29.070312 -2.859375 -34.65625 C -2.347656 -36.3125 -1.804688 -37.960938 -1.234375 -39.609375 C -0.660156 -41.265625 0.0664062 -42.851562 0.953125 -44.375 C 4.253906 -49.957031 7.9375 -55.191406 12 -60.078125 C 16.0625 -64.972656 20.632812 -69.390625 25.71875 -73.328125 C 26.726562 -74.085938 27.800781 -74.785156 28.9375 -75.421875 C 30.082031 -76.054688 31.226562 -76.628906 32.375 -77.140625 C 36.0625 -78.785156 39.585938 -78.53125 42.953125 -76.375 C 46.316406 -74.21875 48.0625 -71.109375 48.1875 -67.046875 C 48.1875 -66.535156 48.1875 -66.054688 48.1875 -65.609375 C 48.1875 -65.160156 48.25 -64.6875 48.375 -64.1875 C 48.625 -62.914062 48.523438 -61.769531 48.078125 -60.75 C 47.640625 -59.738281 47.039062 -58.722656 46.28125 -57.703125 C 45.132812 -55.929688 44.148438 -54.125 43.328125 -52.28125 C 42.503906 -50.4375 41.582031 -48.625 40.5625 -46.84375 L 34.09375 -34.65625 C 33.96875 -34.15625 33.679688 -33.488281 33.234375 -32.65625 C 32.785156 -31.832031 32.628906 -31.101562 32.765625 -30.46875 C 33.015625 -29.832031 33.488281 -29.832031 34.1875 -30.46875 C 34.882812 -31.101562 35.359375 -31.550781 35.609375 -31.8125 C 38.148438 -34.09375 40.785156 -36.1875 43.515625 -38.09375 C 46.242188 -40 49.003906 -41.835938 51.796875 -43.609375 L 66.09375 -52.953125 C 67.488281 -53.835938 68.851562 -54.753906 70.1875 -55.703125 C 71.519531 -56.660156 72.882812 -57.519531 74.28125 -58.28125 C 74.914062 -58.65625 75.675781 -59.097656 76.5625 -59.609375 C 77.445312 -60.117188 78.082031 -60.25 78.46875 -60 C 79.863281 -59.226562 80.242188 -57.953125 79.609375 -56.171875 C 78.972656 -54.398438 77.957031 -53.007812 76.5625 -52 C 76.4375 -51.863281 75.289062 -51.003906 73.125 -49.421875 C 70.96875 -47.835938 68.394531 -45.992188 65.40625 -43.890625 C 62.425781 -41.796875 59.507812 -39.734375 56.65625 -37.703125 C 53.800781 -35.671875 51.484375 -34.085938 49.703125 -32.953125 C 47.421875 -31.296875 45.203125 -29.675781 43.046875 -28.09375 C 40.890625 -26.507812 38.726562 -24.953125 36.5625 -23.421875 C 35.425781 -22.535156 34.09375 -21.898438 32.5625 -21.515625 C 30.15625 -20.753906 28.441406 -21.582031 27.421875 -24 C 26.910156 -25.144531 26.53125 -26.160156 26.28125 -27.046875 C 26.03125 -27.929688 26.09375 -29.453125 26.46875 -31.609375 C 26.726562 -33.898438 27.300781 -36.09375 28.1875 -38.1875 C 29.070312 -40.28125 29.390625 -41.328125 29.140625 -41.328125 C 28.628906 -41.328125 27.515625 -40.5625 25.796875 -39.03125 C 24.085938 -37.507812 22.15625 -35.734375 20 -33.703125 C 17.84375 -31.671875 15.75 -29.703125 13.71875 -27.796875 C 11.6875 -25.898438 10.160156 -24.441406 9.140625 -23.421875 C 8.503906 -22.910156 7.773438 -22.429688 6.953125 -21.984375 C 6.128906 -21.546875 5.398438 -21.070312 4.765625 -20.5625 Z M 5.140625 -31.234375 C 5.898438 -31.359375 6.597656 -31.675781 7.234375 -32.1875 C 7.742188 -32.3125 8.191406 -32.691406 8.578125 -33.328125 C 10.347656 -34.847656 12.085938 -36.398438 13.796875 -37.984375 C 15.515625 -39.578125 17.265625 -41.132812 19.046875 -42.65625 C 21.960938 -44.945312 24.660156 -47.390625 27.140625 -49.984375 C 29.617188 -52.585938 32.0625 -55.222656 34.46875 -57.890625 C 36.5 -60.054688 38.34375 -62.28125 40 -64.5625 C 41.007812 -65.957031 41.609375 -67.320312 41.796875 -68.65625 C 41.992188 -69.988281 41.710938 -70.972656 40.953125 -71.609375 C 39.804688 -72.492188 38.691406 -72.742188 37.609375 -72.359375 C 36.535156 -71.984375 35.488281 -71.476562 34.46875 -70.84375 C 32.4375 -69.570312 30.5 -68.207031 28.65625 -66.75 C 26.820312 -65.289062 25.015625 -63.800781 23.234375 -62.28125 C 20.441406 -59.863281 17.867188 -57.128906 15.515625 -54.078125 C 13.171875 -51.035156 10.921875 -47.925781 8.765625 -44.75 C 7.492188 -43.101562 6.539062 -41.265625 5.90625 -39.234375 C 5.269531 -37.203125 4.828125 -35.046875 4.578125 -32.765625 Z M 5.140625 -31.234375 "/>
      </g>
    </g>
    <g style="fill:#505050;fill-opacity:1;">
      <g transform="translate(159.450414, 147.115732)">
        <path style="stroke:none" d="M 36 -87.984375 C 34.851562 -86.335938 33.644531 -86.335938 32.375 -87.984375 C 31.488281 -89.003906 31.046875 -90.050781 31.046875 -91.125 C 31.046875 -92.207031 31.109375 -93.320312 31.234375 -94.46875 C 31.359375 -94.96875 31.515625 -95.410156 31.703125 -95.796875 C 31.898438 -96.179688 32.0625 -96.5625 32.1875 -96.9375 C 33.707031 -99.09375 35.195312 -101.3125 36.65625 -103.59375 C 38.125 -105.882812 39.617188 -108.109375 41.140625 -110.265625 C 42.023438 -111.410156 43.164062 -112.300781 44.5625 -112.9375 C 45.707031 -113.570312 46.691406 -113.828125 47.515625 -113.703125 C 48.335938 -113.578125 49.257812 -113.066406 50.28125 -112.171875 C 52.820312 -109.890625 53.992188 -108.238281 53.796875 -107.21875 C 53.609375 -106.207031 52.054688 -104.941406 49.140625 -103.421875 C 46.472656 -102.148438 44.1875 -100.050781 42.28125 -97.125 Z M 4.578125 -21.515625 C 1.648438 -20.628906 -0.695312 -21.140625 -2.46875 -23.046875 C -4.25 -24.953125 -5.296875 -27.394531 -5.609375 -30.375 C -5.929688 -33.363281 -5.519531 -35.9375 -4.375 -38.09375 C -2.476562 -41.644531 -0.453125 -45.164062 1.703125 -48.65625 C 3.867188 -52.144531 6.160156 -55.476562 8.578125 -58.65625 C 9.460938 -59.925781 10.664062 -61.796875 12.1875 -64.265625 C 13.707031 -66.742188 15.359375 -69.03125 17.140625 -71.125 C 18.921875 -73.226562 20.632812 -74.34375 22.28125 -74.46875 C 23.300781 -74.71875 24.828125 -74.617188 26.859375 -74.171875 C 28.890625 -73.734375 29.90625 -72.941406 29.90625 -71.796875 C 29.90625 -71.285156 29.140625 -70.519531 27.609375 -69.5 C 26.085938 -68.488281 25.140625 -67.796875 24.765625 -67.421875 C 22.472656 -65.140625 20.34375 -62.628906 18.375 -59.890625 C 16.40625 -57.160156 14.535156 -54.460938 12.765625 -51.796875 C 11.742188 -50.023438 10.628906 -48.28125 9.421875 -46.5625 C 8.222656 -44.851562 7.113281 -43.109375 6.09375 -41.328125 C 5.582031 -40.441406 5.101562 -39.488281 4.65625 -38.46875 C 4.21875 -37.457031 3.875 -36.441406 3.625 -35.421875 C 3.488281 -34.535156 3.453125 -33.519531 3.515625 -32.375 C 3.585938 -31.226562 4.382812 -31.101562 5.90625 -32 C 8.0625 -33.394531 10.21875 -34.757812 12.375 -36.09375 C 14.53125 -37.425781 16.628906 -38.789062 18.671875 -40.1875 C 20.828125 -41.582031 23.425781 -43.265625 26.46875 -45.234375 C 29.519531 -47.203125 32.535156 -49.171875 35.515625 -51.140625 C 38.503906 -53.109375 41.015625 -54.757812 43.046875 -56.09375 C 45.078125 -57.425781 46.15625 -58.15625 46.28125 -58.28125 C 46.914062 -58.65625 47.707031 -59.097656 48.65625 -59.609375 C 49.613281 -60.117188 50.28125 -60.25 50.65625 -60 C 52.050781 -59.226562 52.429688 -57.953125 51.796875 -56.171875 C 51.160156 -54.398438 50.144531 -53.007812 48.75 -52 C 48.5 -51.863281 47.328125 -51.003906 45.234375 -49.421875 C 43.140625 -47.835938 40.566406 -45.992188 37.515625 -43.890625 C 34.472656 -41.796875 31.519531 -39.734375 28.65625 -37.703125 C 25.800781 -35.671875 23.488281 -34.085938 21.71875 -32.953125 C 19.550781 -31.296875 17.359375 -29.675781 15.140625 -28.09375 C 12.921875 -26.507812 10.734375 -24.953125 8.578125 -23.421875 C 8.066406 -22.910156 7.425781 -22.53125 6.65625 -22.28125 C 5.894531 -22.03125 5.203125 -21.773438 4.578125 -21.515625 Z M 4.578125 -21.515625 "/>
      </g>
    </g>
    <g style="fill:#505050;fill-opacity:1;">
      <g transform="translate(197.923146, 147.115732)">
        <path style="stroke:none" d="M 35.046875 -19.609375 C 34.023438 -19.867188 33.257812 -20.632812 32.75 -21.90625 C 32.25 -23.175781 31.96875 -24.570312 31.90625 -26.09375 C 31.84375 -27.613281 32 -28.691406 32.375 -29.328125 C 35.289062 -34.660156 37.382812 -38.660156 38.65625 -41.328125 C 39.925781 -43.992188 40.910156 -46.085938 41.609375 -47.609375 C 42.304688 -49.140625 43.128906 -50.789062 44.078125 -52.5625 C 45.035156 -54.34375 46.53125 -57.007812 48.5625 -60.5625 C 49.070312 -61.320312 48.976562 -61.925781 48.28125 -62.375 C 47.582031 -62.820312 46.660156 -62.851562 45.515625 -62.46875 C 41.203125 -59.675781 36.664062 -56.722656 31.90625 -53.609375 C 27.144531 -50.503906 22.734375 -47.363281 18.671875 -44.1875 C 17.015625 -42.914062 15.328125 -41.675781 13.609375 -40.46875 C 11.898438 -39.257812 10.347656 -37.769531 8.953125 -36 C 7.679688 -34.21875 6.535156 -32.117188 5.515625 -29.703125 C 4.503906 -27.296875 3.109375 -25.394531 1.328125 -24 C -0.0664062 -22.976562 -1.523438 -22.722656 -3.046875 -23.234375 C -4.566406 -23.742188 -5.457031 -24.253906 -5.71875 -24.765625 C -6.601562 -26.160156 -6.914062 -27.773438 -6.65625 -29.609375 C -6.40625 -31.453125 -5.960938 -33.203125 -5.328125 -34.859375 C -4.441406 -36.753906 -3.425781 -38.59375 -2.28125 -40.375 C -1.144531 -42.15625 -0.128906 -43.929688 0.765625 -45.703125 C 2.285156 -48.753906 4.09375 -51.644531 6.1875 -54.375 C 8.28125 -57.101562 10.34375 -59.863281 12.375 -62.65625 C 14.53125 -65.445312 16.53125 -68.363281 18.375 -71.40625 C 20.21875 -74.457031 22.03125 -77.507812 23.8125 -80.5625 C 24.820312 -81.570312 25.738281 -82.078125 26.5625 -82.078125 C 27.394531 -82.078125 28.441406 -81.632812 29.703125 -80.75 C 31.109375 -79.863281 31.648438 -78.625 31.328125 -77.03125 C 31.015625 -75.445312 30.285156 -73.832031 29.140625 -72.1875 C 27.109375 -69.382812 25.140625 -66.554688 23.234375 -63.703125 C 21.328125 -60.847656 19.359375 -57.960938 17.328125 -55.046875 C 16.441406 -53.773438 16.09375 -52.976562 16.28125 -52.65625 C 16.46875 -52.34375 16.5625 -51.738281 16.5625 -50.84375 C 17.195312 -50.84375 17.582031 -50.910156 17.71875 -51.046875 C 18.851562 -51.804688 19.992188 -52.566406 21.140625 -53.328125 C 22.285156 -54.085938 23.363281 -54.910156 24.375 -55.796875 C 28.0625 -58.847656 31.867188 -61.640625 35.796875 -64.171875 C 39.734375 -66.710938 43.671875 -69.191406 47.609375 -71.609375 C 48.628906 -72.242188 49.804688 -72.910156 51.140625 -73.609375 C 52.472656 -74.304688 53.707031 -74.847656 54.84375 -75.234375 C 56.25 -75.609375 57.804688 -75.632812 59.515625 -75.3125 C 61.234375 -75 62.726562 -74.71875 64 -74.46875 C 64.25 -74.34375 64.5625 -74.210938 64.9375 -74.078125 C 65.320312 -73.953125 65.578125 -73.703125 65.703125 -73.328125 C 65.703125 -73.066406 65.640625 -72.8125 65.515625 -72.5625 C 65.390625 -72.050781 65.195312 -71.601562 64.9375 -71.21875 C 64.6875 -70.84375 64.4375 -70.46875 64.1875 -70.09375 C 63.425781 -68.945312 62.628906 -67.800781 61.796875 -66.65625 C 60.972656 -65.507812 60.242188 -64.304688 59.609375 -63.046875 C 59.097656 -62.273438 58.679688 -61.378906 58.359375 -60.359375 C 58.046875 -59.347656 57.640625 -58.335938 57.140625 -57.328125 L 52.953125 -49.703125 L 48.953125 -42.65625 C 48.566406 -41.769531 48.148438 -40.914062 47.703125 -40.09375 C 47.265625 -39.269531 46.851562 -38.410156 46.46875 -37.515625 C 45.957031 -36.242188 46.242188 -35.671875 47.328125 -35.796875 C 48.410156 -35.929688 49.203125 -36.125 49.703125 -36.375 C 55.796875 -39.425781 61.570312 -43.109375 67.03125 -47.421875 C 72.5 -51.734375 78.21875 -55.476562 84.1875 -58.65625 C 84.945312 -59.039062 85.769531 -59.515625 86.65625 -60.078125 C 87.539062 -60.648438 88.175781 -60.8125 88.5625 -60.5625 C 89.957031 -59.675781 90.335938 -58.34375 89.703125 -56.5625 C 89.066406 -54.78125 88.050781 -53.382812 86.65625 -52.375 C 86.40625 -52.25 85.226562 -51.390625 83.125 -49.796875 C 81.03125 -48.210938 78.488281 -46.375 75.5 -44.28125 C 72.519531 -42.1875 69.601562 -40.125 66.75 -38.09375 C 63.894531 -36.0625 61.578125 -34.472656 59.796875 -33.328125 C 55.734375 -30.535156 51.894531 -27.773438 48.28125 -25.046875 C 44.664062 -22.316406 40.253906 -20.503906 35.046875 -19.609375 Z M 35.046875 -19.609375 "/>
      </g>
    </g>
    <g style="fill:#505050;fill-opacity:1;">
      <g transform="translate(272.583087, 147.115732)">
        <path style="stroke:none" d="M 4 -21.515625 C 2.351562 -21.015625 0.707031 -21.332031 -0.9375 -22.46875 C -2.59375 -23.613281 -3.929688 -24.820312 -4.953125 -26.09375 C -5.203125 -26.46875 -5.457031 -27.039062 -5.71875 -27.8125 C -5.71875 -28.570312 -5.648438 -29.203125 -5.515625 -29.703125 C -4.253906 -34.660156 -2.414062 -39.457031 0 -44.09375 C 2.414062 -48.726562 4.957031 -53.203125 7.625 -57.515625 C 9.394531 -60.429688 11.164062 -63.253906 12.9375 -65.984375 C 14.71875 -68.722656 16.5 -71.488281 18.28125 -74.28125 C 18.664062 -74.914062 19.554688 -76.179688 20.953125 -78.078125 C 22.347656 -79.984375 23.710938 -81.953125 25.046875 -83.984375 C 26.378906 -86.015625 27.234375 -87.539062 27.609375 -88.5625 C 27.742188 -88.8125 27.8125 -89.191406 27.8125 -89.703125 C 27.550781 -90.585938 26.976562 -90.90625 26.09375 -90.65625 C 25.207031 -90.53125 24.445312 -90.335938 23.8125 -90.078125 C 23.175781 -89.828125 22.410156 -89.640625 21.515625 -89.515625 C 20.628906 -89.515625 19.421875 -89.382812 17.890625 -89.125 C 16.367188 -88.875 15.164062 -88.875 14.28125 -89.125 C 13.007812 -89.632812 12.628906 -90.773438 13.140625 -92.546875 C 13.648438 -94.328125 14.601562 -95.285156 16 -95.421875 C 17.78125 -95.671875 19.460938 -95.921875 21.046875 -96.171875 C 22.628906 -96.429688 24.25 -96.625 25.90625 -96.75 C 27.550781 -97 29.195312 -97.535156 30.84375 -98.359375 C 32.5 -99.191406 33.960938 -100.050781 35.234375 -100.9375 C 35.867188 -101.570312 36.4375 -102.207031 36.9375 -102.84375 C 37.445312 -103.476562 37.894531 -104.113281 38.28125 -104.75 C 39.550781 -106.78125 40.4375 -108.238281 40.9375 -109.125 C 41.445312 -110.019531 41.894531 -110.75 42.28125 -111.3125 C 42.664062 -111.882812 43.109375 -112.679688 43.609375 -113.703125 C 44.242188 -115.222656 45.070312 -116.300781 46.09375 -116.9375 C 47.101562 -117.570312 48.113281 -117.539062 49.125 -116.84375 C 50.144531 -116.144531 50.972656 -115.476562 51.609375 -114.84375 C 52.367188 -113.820312 52.65625 -112.769531 52.46875 -111.6875 C 52.28125 -110.613281 51.867188 -109.570312 51.234375 -108.5625 C 50.722656 -107.800781 50.019531 -106.878906 49.125 -105.796875 C 48.238281 -104.710938 47.734375 -103.660156 47.609375 -102.640625 C 47.484375 -101.628906 48.25 -100.804688 49.90625 -100.171875 C 50.40625 -100.046875 50.878906 -99.984375 51.328125 -99.984375 C 51.773438 -99.984375 52.25 -99.984375 52.75 -99.984375 C 54.65625 -99.984375 56.5625 -99.789062 58.46875 -99.40625 C 60.375 -99.03125 62.023438 -98.207031 63.421875 -96.9375 C 63.671875 -96.6875 63.796875 -96.429688 63.796875 -96.171875 C 63.796875 -95.921875 63.734375 -95.734375 63.609375 -95.609375 L 63.046875 -94.65625 L 62.09375 -92.9375 C 61.457031 -91.800781 60.757812 -91.101562 60 -90.84375 C 59.738281 -90.71875 59.445312 -90.6875 59.125 -90.75 C 58.8125 -90.8125 58.53125 -90.84375 58.28125 -90.84375 C 56.25 -91.101562 54.25 -91.265625 52.28125 -91.328125 C 50.3125 -91.390625 48.3125 -91.359375 46.28125 -91.234375 C 45.644531 -91.234375 45.007812 -91.234375 44.375 -91.234375 C 43.738281 -91.234375 43.101562 -91.101562 42.46875 -90.84375 C 40.945312 -90.332031 39.769531 -89.535156 38.9375 -88.453125 C 38.113281 -87.378906 37.195312 -86.335938 36.1875 -85.328125 C 35.164062 -84.179688 34.179688 -83.066406 33.234375 -81.984375 C 32.285156 -80.910156 31.363281 -79.738281 30.46875 -78.46875 C 29.457031 -76.945312 28.472656 -75.390625 27.515625 -73.796875 C 26.566406 -72.210938 25.582031 -70.59375 24.5625 -68.9375 C 23.675781 -67.539062 22.851562 -66.082031 22.09375 -64.5625 C 21.332031 -63.039062 20.441406 -61.582031 19.421875 -60.1875 C 16.878906 -56.25 14.71875 -52.085938 12.9375 -47.703125 C 11.164062 -43.328125 9.203125 -39.046875 7.046875 -34.859375 C 6.921875 -34.722656 6.859375 -34.53125 6.859375 -34.28125 C 6.859375 -34.03125 6.984375 -33.90625 7.234375 -33.90625 C 7.742188 -33.769531 8.21875 -33.796875 8.65625 -33.984375 C 9.101562 -34.179688 9.519531 -34.40625 9.90625 -34.65625 C 15.613281 -38.71875 21.484375 -42.71875 27.515625 -46.65625 C 33.546875 -50.59375 39.546875 -54.40625 45.515625 -58.09375 L 45.703125 -58.28125 C 46.335938 -58.65625 47.097656 -59.097656 47.984375 -59.609375 C 48.878906 -60.117188 49.519531 -60.25 49.90625 -60 C 51.300781 -59.226562 51.679688 -57.953125 51.046875 -56.171875 C 50.410156 -54.398438 49.394531 -53.007812 48 -52 C 47.863281 -51.863281 46.71875 -51.003906 44.5625 -49.421875 C 42.40625 -47.835938 39.832031 -45.992188 36.84375 -43.890625 C 33.863281 -41.796875 30.945312 -39.734375 28.09375 -37.703125 C 25.238281 -35.671875 22.921875 -34.085938 21.140625 -32.953125 C 18.859375 -31.296875 16.632812 -29.675781 14.46875 -28.09375 C 12.3125 -26.507812 10.15625 -24.953125 8 -23.421875 C 6.851562 -22.535156 5.519531 -21.898438 4 -21.515625 Z M 4 -21.515625 "/>
      </g>
    </g>
    <g style="fill:#505050;fill-opacity:1;">
      <g transform="translate(310.484433, 147.115732)">
        <path style="stroke:none" d="M 1.140625 -21.328125 C -0.128906 -21.835938 -1.269531 -22.945312 -2.28125 -24.65625 C -3.300781 -26.375 -3.8125 -28.25 -3.8125 -30.28125 L -3.625 -32 C -3.75 -33.769531 -3.554688 -35.515625 -3.046875 -37.234375 C -2.535156 -38.953125 -1.835938 -40.632812 -0.953125 -42.28125 C 0.441406 -44.820312 1.804688 -47.425781 3.140625 -50.09375 C 4.472656 -52.757812 5.898438 -55.296875 7.421875 -57.703125 C 8.816406 -59.992188 10.304688 -62.28125 11.890625 -64.5625 C 13.484375 -66.84375 15.171875 -69 16.953125 -71.03125 C 18.347656 -72.4375 19.898438 -73.769531 21.609375 -75.03125 C 23.328125 -76.300781 25.394531 -76.429688 27.8125 -75.421875 C 28.945312 -74.910156 29.800781 -74.5625 30.375 -74.375 C 30.945312 -74.1875 31.613281 -73.582031 32.375 -72.5625 C 32.5 -72.5625 33.132812 -72.53125 34.28125 -72.46875 C 35.425781 -72.40625 36.664062 -72.375 38 -72.375 C 39.332031 -72.375 40.316406 -72.375 40.953125 -72.375 C 42.847656 -72.375 45.191406 -72.4375 47.984375 -72.5625 C 50.785156 -72.6875 53.359375 -72.78125 55.703125 -72.84375 C 58.054688 -72.90625 59.421875 -72.9375 59.796875 -72.9375 C 61.578125 -72.9375 62.40625 -72.460938 62.28125 -71.515625 C 62.15625 -70.566406 61.582031 -69.644531 60.5625 -68.75 C 59.550781 -67.863281 58.660156 -67.359375 57.890625 -67.234375 C 56.628906 -67.234375 54.789062 -67.132812 52.375 -66.9375 C 49.957031 -66.75 47.539062 -66.59375 45.125 -66.46875 C 42.71875 -66.34375 40.878906 -66.28125 39.609375 -66.28125 C 37.453125 -66.28125 35.960938 -66.179688 35.140625 -65.984375 C 34.316406 -65.796875 33.773438 -65.191406 33.515625 -64.171875 C 33.265625 -63.160156 32.882812 -61.453125 32.375 -59.046875 C 31.613281 -55.742188 30.40625 -52.628906 28.75 -49.703125 C 27.101562 -46.785156 25.390625 -43.929688 23.609375 -41.140625 C 21.578125 -38.347656 19.351562 -35.617188 16.9375 -32.953125 C 14.53125 -30.285156 12.1875 -27.617188 9.90625 -24.953125 L 9.515625 -24.375 C 8.253906 -23.226562 6.988281 -22.304688 5.71875 -21.609375 C 4.445312 -20.910156 2.921875 -20.816406 1.140625 -21.328125 Z M 6.859375 -35.234375 C 7.234375 -35.484375 7.613281 -35.671875 8 -35.796875 C 8.382812 -35.929688 8.703125 -36.125 8.953125 -36.375 C 11.992188 -39.289062 14.722656 -42.460938 17.140625 -45.890625 C 19.554688 -49.328125 21.78125 -52.882812 23.8125 -56.5625 C 24.3125 -57.445312 24.6875 -58.394531 24.9375 -59.40625 C 25.195312 -60.425781 25.457031 -61.445312 25.71875 -62.46875 C 25.84375 -62.71875 25.804688 -63.035156 25.609375 -63.421875 C 25.421875 -63.804688 25.203125 -64.1875 24.953125 -64.5625 C 24.191406 -64.3125 23.679688 -64.054688 23.421875 -63.796875 C 19.617188 -60.242188 16.414062 -56.242188 13.8125 -51.796875 C 11.207031 -47.359375 8.757812 -42.851562 6.46875 -38.28125 C 6.21875 -37.519531 6.09375 -36.882812 6.09375 -36.375 C 6.09375 -36.375 6.347656 -35.992188 6.859375 -35.234375 Z M 6.859375 -35.234375 "/>
      </g>
    </g>
    <g style="fill:#505050;fill-opacity:1;">
      <g transform="translate(349.90944, 147.115732)">
        <path style="stroke:none" d="M 9.328125 -22.28125 C 8.316406 -21.394531 7.207031 -21.234375 6 -21.796875 C 4.789062 -22.367188 3.488281 -23.359375 2.09375 -24.765625 C 1.332031 -25.398438 0.789062 -26.253906 0.46875 -27.328125 C 0.15625 -28.410156 0 -29.457031 0 -30.46875 C 0.25 -33.132812 1.226562 -34.625 2.9375 -34.9375 C 4.65625 -35.257812 6.46875 -34.878906 8.375 -33.796875 C 10.28125 -32.722656 11.550781 -31.234375 12.1875 -29.328125 C 12.4375 -27.679688 12.304688 -26.347656 11.796875 -25.328125 C 11.296875 -24.316406 10.472656 -23.300781 9.328125 -22.28125 Z M 9.328125 -22.28125 "/>
      </g>
    </g>
  </g>
</svg>

 
