<?xml version="1.0" encoding="UTF-8"?>
<svg version="1.1" xmlns="http://www.w3.org/2000/svg" width="400" height="400">
<path d="M0 0 C132 0 264 0 400 0 C400 132 400 264 400 400 C268 400 136 400 0 400 C0 268 0 136 0 0 Z " fill="#E5E5E5" transform="translate(0,0)"/>
<path d="M0 0 C47.19 0 94.38 0 143 0 C143 4.29 143 8.58 143 13 C151.91 13 160.82 13 170 13 C170 17.29 170 21.58 170 26 C178.58 26 187.16 26 196 26 C196 30.29 196 34.58 196 39 C200.29 39 204.58 39 209 39 C209 43.29 209 47.58 209 52 C213.29 52 217.58 52 222 52 C222 56.29 222 60.58 222 65 C226.29 65 230.58 65 235 65 C235 69.29 235 73.58 235 78 C239.29 78 243.58 78 248 78 C248 90.87 248 103.74 248 117 C136.13 117 24.26 117 -91 117 C-91 105 -91 105 -90 104 C-88.06461065 103.90044896 -86.12544231 103.87031332 -84.1875 103.875 C-82.60001953 103.87113281 -82.60001953 103.87113281 -80.98046875 103.8671875 C-78.46310983 103.97936339 -76.39576745 104.2690879 -74 105 C-74 104.34 -74 103.68 -74 103 C-75.32 102.67 -76.64 102.34 -78 102 C-78.02689216 100.52093108 -78.04634621 99.04172517 -78.0625 97.5625 C-78.07410156 96.73878906 -78.08570312 95.91507812 -78.09765625 95.06640625 C-78 93 -78 93 -77 92 C-83.93 91.505 -83.93 91.505 -91 91 C-91 95.29 -91 99.58 -91 104 C-95.29 104 -99.58 104 -104 104 C-104 95.42 -104 86.84 -104 78 C-99.71 78 -95.42 78 -91 78 C-91 73.71 -91 69.42 -91 65 C-86.71 65 -82.42 65 -78 65 C-78 60.71 -78 56.42 -78 52 C-73.71 52 -69.42 52 -65 52 C-65 47.71 -65 43.42 -65 39 C-60.71 39 -56.42 39 -52 39 C-52 34.71 -52 30.42 -52 26 C-47.71 26 -43.42 26 -39 26 C-39 21.71 -39 17.42 -39 13 C-26.13 13 -13.26 13 0 13 C0 8.71 0 4.42 0 0 Z " fill="#737373" transform="translate(130,283)"/>
<path d="M0 0 C25.74 0 51.48 0 78 0 C78 3.96 78 7.92 78 12 C80.8153125 11.9690625 80.8153125 11.9690625 83.6875 11.9375 C90.50670985 11.93000636 97.20858608 12.40295262 104 13 C104 17.29 104 21.58 104 26 C108.29 26 112.58 26 117 26 C117.33 29.96 117.66 33.92 118 38 C121.96 38.33 125.92 38.66 130 39 C130 73.32 130 107.64 130 143 C125.71 143 121.42 143 117 143 C117 151.58 117 160.16 117 169 C108.42 169 99.84 169 91 169 C91 173.29 91 177.58 91 182 C86.71 182 82.42 182 78 182 C78 186.29 78 190.58 78 195 C69.67270649 195.02255403 61.34543656 195.04091682 53.01812077 195.05181217 C49.15179882 195.05704026 45.28549879 195.06413654 41.41918945 195.07543945 C37.69096599 195.086271 33.96276366 195.0922774 30.23452568 195.09487724 C28.80910344 195.09673101 27.38368241 195.10035071 25.95826912 195.10573006 C23.96836592 195.11294393 21.97844166 195.11340808 19.98852539 195.11352539 C18.85379288 195.115746 17.71906036 195.11796661 16.54994202 195.12025452 C14 195 14 195 13 194 C13 190.04 13 186.08 13 182 C4.42 182 -4.16 182 -13 182 C-13 177.71 -13 173.42 -13 169 C-17.29 169 -21.58 169 -26 169 C-26 164.71 -26 160.42 -26 156 C-30.29 156 -34.58 156 -39 156 C-39 147.42 -39 138.84 -39 130 C-43.29 130 -47.58 130 -52 130 C-52 103.93 -52 77.86 -52 51 C-47.71 51 -43.42 51 -39 51 C-39 47.04 -39 43.08 -39 39 C-34.71 39 -30.42 39 -26 39 C-26 34.38 -26 29.76 -26 25 C-21.71 25 -17.42 25 -13 25 C-13 20.71 -13 16.42 -13 12 C-8.71 12 -4.42 12 0 12 C0 8.04 0 4.08 0 0 Z " fill="#525252" transform="translate(156,62)"/>
<path d="M0 0 C0.89730331 0.02361099 1.79460663 0.04722198 2.71910095 0.07154846 C5.55120926 0.14738493 8.38298686 0.23174721 11.21484375 0.31640625 C13.14907301 0.36970732 15.08331782 0.42244697 17.01757812 0.47460938 C21.72937127 0.60288999 26.44088769 0.73881104 31.15234375 0.87890625 C32.24670554 5.01400338 32.22362179 8.60222412 32.15234375 12.87890625 C36.11234375 13.20890625 40.07234375 13.53890625 44.15234375 13.87890625 C44.15234375 39.61890625 44.15234375 65.35890625 44.15234375 91.87890625 C35.57234375 91.87890625 26.99234375 91.87890625 18.15234375 91.87890625 C18.15234375 96.16890625 18.15234375 100.45890625 18.15234375 104.87890625 C5.61234375 104.54890625 -6.92765625 104.21890625 -19.84765625 103.87890625 C-20.34265625 97.93890625 -20.34265625 97.93890625 -20.84765625 91.87890625 C-25.13765625 91.87890625 -29.42765625 91.87890625 -33.84765625 91.87890625 C-33.84765625 87.58890625 -33.84765625 83.29890625 -33.84765625 78.87890625 C-36.78671875 78.90984375 -36.78671875 78.90984375 -39.78515625 78.94140625 C-41.80598501 78.96267813 -43.82801426 78.95134678 -45.84765625 78.87890625 C-46.84765625 77.87890625 -46.84765625 77.87890625 -46.96118164 74.27709961 C-46.9610225 72.67430769 -46.95532688 71.07151065 -46.9453125 69.46875 C-46.94389755 68.62671524 -46.9424826 67.78468048 -46.94102478 66.91712952 C-46.93540888 64.2168529 -46.92285373 61.51665797 -46.91015625 58.81640625 C-46.9051433 56.99023557 -46.90058004 55.16406359 -46.89648438 53.33789062 C-46.88543429 48.85153083 -46.86815904 44.36523241 -46.84765625 39.87890625 C-42.55765625 39.87890625 -38.26765625 39.87890625 -33.84765625 39.87890625 C-33.85925781 38.01363281 -33.87085938 36.14835937 -33.8828125 34.2265625 C-33.8921885 31.79817808 -33.9012889 29.36979258 -33.91015625 26.94140625 C-33.91853516 25.70970703 -33.92691406 24.47800781 -33.93554688 23.20898438 C-33.93876953 22.03916016 -33.94199219 20.86933594 -33.9453125 19.6640625 C-33.95054932 18.5800415 -33.95578613 17.49602051 -33.96118164 16.37915039 C-33.84765625 13.87890625 -33.84765625 13.87890625 -32.84765625 12.87890625 C-30.66126172 12.80631679 -28.47265236 12.79516842 -26.28515625 12.81640625 C-24.48884766 12.82994141 -24.48884766 12.82994141 -22.65625 12.84375 C-21.72941406 12.85535156 -20.80257812 12.86695312 -19.84765625 12.87890625 C-20.17765625 11.88890625 -20.50765625 10.89890625 -20.84765625 9.87890625 C-20.53464812 2.56589812 -20.53464812 2.56589812 -18.84765625 0.87890625 C-12.50016234 -0.03786237 -6.39906538 -0.20343904 0 0 Z " fill="#CCCCCC" transform="translate(189.84765625,74.12109375)"/>
<path d="M0 0 C25.74 0 51.48 0 78 0 C78 3.96 78 7.92 78 12 C80.8153125 11.9690625 80.8153125 11.9690625 83.6875 11.9375 C90.49792049 11.93001602 97.22103658 12.37868748 104 13 C104.02686553 14.97909398 104.04633375 16.95828971 104.0625 18.9375 C104.07410156 20.03964844 104.08570313 21.14179687 104.09765625 22.27734375 C104 25 104 25 103 26 C101.31816052 26.23287008 99.6287584 26.41264166 97.9375 26.5625 C95.4934375 26.7790625 95.4934375 26.7790625 93 27 C92.67 30.3 92.34 33.6 92 37 C93.588125 37.144375 95.17625 37.28875 96.8125 37.4375 C99.78896626 37.70808784 102.14917204 38.04972401 105 39 C105.02556466 46.16755401 105.04295612 53.33509606 105.05493164 60.50268555 C105.05992942 62.93595825 105.06672986 65.36922799 105.07543945 67.80249023 C105.08770619 71.32015721 105.09327402 74.83778413 105.09765625 78.35546875 C105.10281754 79.42580856 105.10797882 80.49614838 105.11329651 81.59892273 C105.11384225 89.11406349 104.64769788 96.51225392 104 104 C99.71 104 95.42 104 91 104 C91 108.29 91 112.58 91 117 C82.42 117 73.84 117 65 117 C65 121.29 65 125.58 65 130 C43.55 130 22.1 130 0 130 C0 125.71 0 121.42 0 117 C-4.29 117 -8.58 117 -13 117 C-13 112.38 -13 107.76 -13 103 C-19.435 103.495 -19.435 103.495 -26 104 C-26.06770515 95.68997365 -26.12277481 87.38016075 -26.15543652 79.06993294 C-26.17111039 75.21139425 -26.19237955 71.3530536 -26.22631836 67.49462891 C-26.25885119 63.77286704 -26.27684004 60.05129597 -26.28463173 56.32940292 C-26.29018625 54.9075711 -26.30103261 53.48575004 -26.31719017 52.06399918 C-26.33888117 50.07678613 -26.34022469 48.08938217 -26.34057617 46.10205078 C-26.34723801 44.96953888 -26.35389984 43.83702698 -26.36076355 42.67019653 C-26.24171158 41.78903168 -26.12265961 40.90786682 -26 40 C-21.50414136 37.00276091 -18.27980299 38.3143113 -13 39 C-13 34.71 -13 30.42 -13 26 C-17.29 26 -21.58 26 -26 26 C-26 25.67 -26 25.34 -26 25 C-21.71 25 -17.42 25 -13 25 C-13 20.71 -13 16.42 -13 12 C-8.71 12 -4.42 12 0 12 C0 8.04 0 4.08 0 0 Z M14 14 C13.74089809 15.47112304 13.54126224 16.95301569 13.375 18.4375 C13.23191406 19.64212891 13.23191406 19.64212891 13.0859375 20.87109375 C12.82615983 23.05475766 12.82615983 23.05475766 14 25 C13.07316406 24.98839844 12.14632812 24.97679687 11.19140625 24.96484375 C9.39509766 24.95130859 9.39509766 24.95130859 7.5625 24.9375 C5.77005859 24.92009766 5.77005859 24.92009766 3.94140625 24.90234375 C1.11126659 24.66098208 1.11126659 24.66098208 0 26 C-0.08748207 27.92667507 -0.10697334 29.85651861 -0.09765625 31.78515625 C-0.09443359 32.95498047 -0.09121094 34.12480469 -0.08789062 35.33007812 C-0.07951172 36.56177734 -0.07113281 37.79347656 -0.0625 39.0625 C-0.05798828 40.29806641 -0.05347656 41.53363281 -0.04882812 42.80664062 C-0.03699618 45.87111413 -0.01906008 48.93556293 0 52 C-4.29 52 -8.58 52 -13 52 C-13.02464849 57.39346988 -13.04283531 62.78690725 -13.05493164 68.18041992 C-13.05997231 70.01668875 -13.06680477 71.85295354 -13.07543945 73.68920898 C-13.08751672 76.32276401 -13.09323081 78.95626616 -13.09765625 81.58984375 C-13.10281754 82.41588608 -13.10797882 83.24192841 -13.11329651 84.09300232 C-13.11349205 86.06236368 -13.06204152 88.03161614 -13 90 C-11.91447634 91.31262571 -11.91447634 91.31262571 -9.27734375 91.09765625 C-8.17519531 91.08605469 -7.07304687 91.07445312 -5.9375 91.0625 C-3.978125 91.041875 -2.01875 91.02125 0 91 C0 95.29 0 99.58 0 104 C4.29 104 8.58 104 13 104 C13.495 109.94 13.495 109.94 14 116 C26.54 116.33 39.08 116.66 52 117 C52 112.71 52 108.42 52 104 C60.58 104 69.16 104 78 104 C78 78.26 78 52.52 78 26 C74.04 25.67 70.08 25.34 66 25 C66.03255208 22.75390625 66.06510417 20.5078125 66.09765625 18.26171875 C66.09657855 15.83138666 66.09657855 15.83138666 65 13 C59.32596462 12.83128248 53.65177518 12.6708495 47.97729492 12.51782227 C46.05014877 12.46471639 44.12306173 12.40941527 42.19604492 12.35180664 C39.41337834 12.26901061 36.63058914 12.19432184 33.84765625 12.12109375 C32.99728287 12.09405869 32.14690948 12.06702362 31.27076721 12.03916931 C22.03344296 11.33458339 22.03344296 11.33458339 14 14 Z " fill="#717171" transform="translate(156,62)"/>
<path d="M0 0 C8.58 0 17.16 0 26 0 C26 4.29 26 8.58 26 13 C27.79308594 12.98839844 29.58617187 12.97679687 31.43359375 12.96484375 C33.76822813 12.95546771 36.10286363 12.94636731 38.4375 12.9375 C39.62150391 12.92912109 40.80550781 12.92074219 42.02539062 12.91210938 C43.15009766 12.90888672 44.27480469 12.90566406 45.43359375 12.90234375 C46.47572021 12.89710693 47.51784668 12.89187012 48.59155273 12.88647461 C51 13 51 13 52 14 C52 17.63 52 21.26 52 25 C69.16 24.67 86.32 24.34 104 24 C104 20.7 104 17.4 104 14 C102.35 14 100.7 14 99 14 C99 13.67 99 13.34 99 13 C113.52 13 128.04 13 143 13 C143 8.71 143 4.42 143 0 C147.29 0 151.58 0 156 0 C156 8.58 156 17.16 156 26 C147.42 26 138.84 26 130 26 C130 30.29 130 34.58 130 39 C125.71 39 121.42 39 117 39 C117 43.29 117 47.58 117 52 C108.67270649 52.02255403 100.34543656 52.04091682 92.01812077 52.05181217 C88.15179882 52.05704026 84.28549879 52.06413654 80.41918945 52.07543945 C76.69096599 52.086271 72.96276366 52.0922774 69.23452568 52.09487724 C67.80910344 52.09673101 66.38368241 52.10035071 64.95826912 52.10573006 C62.96836592 52.11294393 60.97844166 52.11340808 58.98852539 52.11352539 C57.85379288 52.115746 56.71906036 52.11796661 55.54994202 52.12025452 C53 52 53 52 52 51 C52 47.04 52 43.08 52 39 C43.42 39 34.84 39 26 39 C26 34.71 26 30.42 26 26 C21.71 26 17.42 26 13 26 C13 21.71 13 17.42 13 13 C8.71 13 4.42 13 0 13 C0 8.71 0 4.42 0 0 Z " fill="#7C7C7C" transform="translate(117,205)"/>
<path d="M0 0 C21.45 0 42.9 0 65 0 C65 17.16 65 34.32 65 52 C56.42 52 47.84 52 39 52 C39 55.96 39 59.92 39 64 C30.42 64 21.84 64 13 64 C13 60.04 13 56.08 13 52 C8.71 52 4.42 52 0 52 C0 34.84 0 17.68 0 0 Z " fill="#DDDDDD" transform="translate(169,101)"/>
<path d="M0 0 C4.62 0 9.24 0 14 0 C14 3.96 14 7.92 14 12 C16.6915625 11.9690625 16.6915625 11.9690625 19.4375 11.9375 C21.29166122 11.9161878 23.14712498 11.92773498 25 12 C26 13 26 13 26.12025452 15.09437561 C26.11803391 16.01592941 26.11581329 16.93748322 26.11352539 17.88696289 C26.11344986 18.92796646 26.11337433 19.96897003 26.11329651 21.04151917 C26.10813522 22.1737944 26.10297394 23.30606964 26.09765625 24.47265625 C26.0962413 25.62543564 26.09482635 26.77821503 26.09336853 27.96592712 C26.08775005 31.66481064 26.07519442 35.36363464 26.0625 39.0625 C26.05748738 41.56315017 26.05292406 44.06380129 26.04882812 46.56445312 C26.03777462 52.70965851 26.0204976 58.85481915 26 65 C21.71 65 17.42 65 13 65 C13 69.29 13 73.58 13 78 C0.13 78 -12.74 78 -26 78 C-26 73.71 -26 69.42 -26 65 C-17.42 65 -8.84 65 0 65 C0 43.55 0 22.1 0 0 Z " fill="#757575" transform="translate(234,101)"/>
<path d="M0 0 C1.61882584 0.00666183 1.61882584 0.00666183 3.27035522 0.01345825 C5.10202744 0.01368484 5.10202744 0.01368484 6.97070312 0.01391602 C8.30805625 0.02413001 9.64540772 0.03456201 10.98275757 0.04519653 C12.34753208 0.04892623 13.71230926 0.05177341 15.0770874 0.05377197 C18.6709023 0.0614119 22.2645558 0.08106331 25.85830688 0.10317993 C29.52476823 0.12363072 33.19125564 0.13277204 36.85775757 0.14285278 C44.0531522 0.16430902 51.24838047 0.19949391 58.44369507 0.24050903 C58.44369507 4.20050903 58.44369507 8.16050903 58.44369507 12.24050903 C61.25900757 12.20957153 61.25900757 12.20957153 64.13119507 12.17800903 C70.94161556 12.17052505 77.66473165 12.61919651 84.44369507 13.24050903 C84.4705606 15.21960301 84.49002882 17.19879874 84.50619507 19.17800903 C84.51779663 20.28015747 84.52939819 21.38230591 84.54135132 22.51785278 C84.44369507 25.24050903 84.44369507 25.24050903 83.44369507 26.24050903 C81.76185559 26.47337911 80.07245347 26.65315069 78.38119507 26.80300903 C75.93713257 27.01957153 75.93713257 27.01957153 73.44369507 27.24050903 C73.11369507 30.54050903 72.78369507 33.84050903 72.44369507 37.24050903 C74.03182007 37.38488403 75.61994507 37.52925903 77.25619507 37.67800903 C80.23266133 37.94859688 82.59286711 38.29023305 85.44369507 39.24050903 C85.44369507 56.40050903 85.44369507 73.56050903 85.44369507 91.24050903 C85.11369507 91.24050903 84.78369507 91.24050903 84.44369507 91.24050903 C84.11369507 78.37050903 83.78369507 65.50050903 83.44369507 52.24050903 C77.99869507 51.74550903 77.99869507 51.74550903 72.44369507 51.24050903 C72.44369507 47.28050903 72.44369507 43.32050903 72.44369507 39.24050903 C67.82369507 39.24050903 63.20369507 39.24050903 58.44369507 39.24050903 C58.44369507 34.95050903 58.44369507 30.66050903 58.44369507 26.24050903 C55.50463257 26.27144653 55.50463257 26.27144653 52.50619507 26.30300903 C50.4853663 26.32428091 48.46333706 26.31294956 46.44369507 26.24050903 C45.44369507 25.24050903 45.44369507 25.24050903 45.34603882 22.51785278 C45.35764038 21.41570435 45.36924194 20.31355591 45.38119507 19.17800903 C45.39021851 18.07328247 45.39924194 16.96855591 45.40853882 15.83035278 C45.42014038 14.97570435 45.43174194 14.12105591 45.44369507 13.24050903 C43.69681396 13.24836426 43.69681396 13.24836426 41.91464233 13.25637817 C37.55918152 13.2745933 33.20372402 13.28600095 28.84823608 13.29544067 C26.96964958 13.30044335 25.09106691 13.30724759 23.2124939 13.31594849 C20.49918667 13.3281933 17.78593131 13.33377814 15.07260132 13.33816528 C13.82985191 13.34590721 13.82985191 13.34590721 12.56199646 13.35380554 C1.1328836 13.3548844 1.1328836 13.3548844 -3.55630493 12.24050903 C-4.67075991 10.01159908 -4.72110779 8.70995797 -4.74380493 6.24050903 C-4.75798462 5.53925903 -4.77216431 4.83800903 -4.78677368 4.11550903 C-4.39358541 0.91668916 -3.06175171 0.28806381 0 0 Z " fill="#717171" transform="translate(175.55630493164063,61.759490966796875)"/>
<path d="M0 0 C0.89730331 0.02361099 1.79460663 0.04722198 2.71910095 0.07154846 C5.55120926 0.14738493 8.38298686 0.23174721 11.21484375 0.31640625 C13.14907301 0.36970732 15.08331782 0.42244697 17.01757812 0.47460938 C21.72937127 0.60288999 26.44088769 0.73881104 31.15234375 0.87890625 C32.24670554 5.01400338 32.22362179 8.60222412 32.15234375 12.87890625 C36.11234375 13.20890625 40.07234375 13.53890625 44.15234375 13.87890625 C44.15234375 18.16890625 44.15234375 22.45890625 44.15234375 26.87890625 C18.41234375 26.87890625 -7.32765625 26.87890625 -33.84765625 26.87890625 C-33.84765625 13.87890625 -33.84765625 13.87890625 -32.84765625 12.87890625 C-30.66126172 12.80631679 -28.47265236 12.79516842 -26.28515625 12.81640625 C-24.48884766 12.82994141 -24.48884766 12.82994141 -22.65625 12.84375 C-21.72941406 12.85535156 -20.80257812 12.86695312 -19.84765625 12.87890625 C-20.17765625 11.88890625 -20.50765625 10.89890625 -20.84765625 9.87890625 C-20.53464812 2.56589812 -20.53464812 2.56589812 -18.84765625 0.87890625 C-12.50016234 -0.03786237 -6.39906538 -0.20343904 0 0 Z " fill="#7C7C7C" transform="translate(189.84765625,74.12109375)"/>
<path d="M0 0 C0 8.58 0 17.16 0 26 C-4.29 26 -8.58 26 -13 26 C-13 29.96 -13 33.92 -13 38 C-21.58 38.33 -30.16 38.66 -39 39 C-39 35.04 -39 31.08 -39 27 C-44.94 26.01 -44.94 26.01 -51 25 C-51 16.75 -51 8.5 -51 0 C-46.54174182 -0.16891912 -42.08341093 -0.33520359 -37.625 -0.5 C-35.74748047 -0.57154297 -35.74748047 -0.57154297 -33.83203125 -0.64453125 C-22.42111844 -1.06273224 -11.38229531 -0.96870598 0 0 Z " fill="#FAFAFA" transform="translate(221,114)"/>
<path d="M0 0 C8.58 0 17.16 0 26 0 C26.33 3.96 26.66 7.92 27 12 C29.75730469 11.98259766 29.75730469 11.98259766 32.5703125 11.96484375 C47.7473792 11.89948259 62.84400821 12.12591602 78 13 C78 17.29 78 21.58 78 26 C56.55 26 35.1 26 13 26 C13 21.71 13 17.42 13 13 C8.71 13 4.42 13 0 13 C0 8.71 0 4.42 0 0 Z " fill="#6E6E6E" transform="translate(143,166)"/>
<path d="M0 0 C8.58 0 17.16 0 26 0 C26 3.96 26 7.92 26 12 C34.58 12 43.16 12 52 12 C52 8.04 52 4.08 52 0 C60.58 0 69.16 0 78 0 C78 4.29 78 8.58 78 13 C69.42 13 60.84 13 52 13 C52 17.29 52 21.58 52 26 C39.46 25.67 26.92 25.34 14 25 C13.67 21.04 13.34 17.08 13 13 C8.71 13 4.42 13 0 13 C0 8.71 0 4.42 0 0 Z " fill="#C4C4C4" transform="translate(156,153)"/>
<path d="M0 0 C0.33 0 0.66 0 1 0 C1 4.29 1 8.58 1 13 C4.96 13 8.92 13 13 13 C14.19400933 24.82637814 14.15196447 36.60703881 14.13037109 48.48339844 C14.12501286 51.99158042 14.13034024 55.49963441 14.13671875 59.0078125 C14.13957406 69.72777661 14.0776259 80.32637203 13 91 C8.71 91 4.42 91 0 91 C0 60.97 0 30.94 0 0 Z " fill="#A8A8A8" transform="translate(286,101)"/>
<path d="M0 0 C8.58 0 17.16 0 26 0 C26 4.29 26 8.58 26 13 C27.79308594 12.98839844 29.58617187 12.97679687 31.43359375 12.96484375 C33.76822813 12.95546771 36.10286363 12.94636731 38.4375 12.9375 C39.62150391 12.92912109 40.80550781 12.92074219 42.02539062 12.91210938 C43.15009766 12.90888672 44.27480469 12.90566406 45.43359375 12.90234375 C46.47572021 12.89710693 47.51784668 12.89187012 48.59155273 12.88647461 C51 13 51 13 52 14 C52 17.63 52 21.26 52 25 C69.16 24.67 86.32 24.34 104 24 C104 20.7 104 17.4 104 14 C102.35 14 100.7 14 99 14 C99 13.67 99 13.34 99 13 C104.94 13 110.88 13 117 13 C118.125 22.625 118.125 22.625 117 26 C82.68 26 48.36 26 13 26 C13 21.71 13 17.42 13 13 C8.71 13 4.42 13 0 13 C0 8.71 0 4.42 0 0 Z " fill="#707070" transform="translate(117,205)"/>
<path d="M0 0 C4.62 0 9.24 0 14 0 C15.49640828 4.48922485 14.54749697 8.31585924 14 13 C7.565 13.495 7.565 13.495 1 14 C0.67 17.96 0.34 21.92 0 26 C-1.2375 26.12375 -2.475 26.2475 -3.75 26.375 C-6.89420871 26.68942087 -9.38150606 27.16246039 -12 29 C-12.6993514 31.18541552 -12.6993514 31.18541552 -12.75 33.625 C-12.80671875 34.44226563 -12.8634375 35.25953125 -12.921875 36.1015625 C-12.94765625 36.72804688 -12.9734375 37.35453125 -13 38 C-11.515 37.505 -11.515 37.505 -10 37 C-9.67 37.66 -9.34 38.32 -9 39 C-14.61 39 -20.22 39 -26 39 C-26 43.29 -26 47.58 -26 52 C-30.29 52 -34.58 52 -39 52 C-39 43.42 -39 34.84 -39 26 C-34.71 26 -30.42 26 -26 26 C-26 21.71 -26 17.42 -26 13 C-17.42 13 -8.84 13 0 13 C0 8.71 0 4.42 0 0 Z " fill="#959595" transform="translate(65,335)"/>
<path d="M0 0 C17.16 0 34.32 0 52 0 C52 4.29 52 8.58 52 13 C35.17 13 18.34 13 1 13 C1 21.25 1 29.5 1 38 C4.96 38.33 8.92 38.66 13 39 C14.21245921 43.84983684 13.65227848 47.07167374 13 52 C8.71 52 4.42 52 0 52 C0 34.84 0 17.68 0 0 Z " fill="#EEEEEE" transform="translate(169,101)"/>
<path d="M0 0 C21.45 0 42.9 0 65 0 C65 4.29 65 8.58 65 13 C56.67270649 13.02255403 48.34543656 13.04091682 40.01812077 13.05181217 C36.15179882 13.05704026 32.28549879 13.06413654 28.41918945 13.07543945 C24.69096599 13.086271 20.96276366 13.0922774 17.23452568 13.09487724 C15.80910344 13.09673101 14.38368241 13.10035071 12.95826912 13.10573006 C10.96836592 13.11294393 8.97844166 13.11340808 6.98852539 13.11352539 C5.85379288 13.115746 4.71906036 13.11796661 3.54994202 13.12025452 C1 13 1 13 0 12 C0 8.04 0 4.08 0 0 Z " fill="#A1A1A1" transform="translate(169,244)"/>
<path d="M0 0 C21.12 0 42.24 0 64 0 C64.495 6.435 64.495 6.435 65 13 C43.55 13 22.1 13 0 13 C-1.29721449 9.10835652 -1.13033993 6.10570774 -1 2 C-0.67 1.34 -0.34 0.68 0 0 Z " fill="#B2B2B2" transform="translate(170,270)"/>
<path d="M0 0 C4.29 0 8.58 0 13 0 C13 4.29 13 8.58 13 13 C17.29 13 21.58 13 26 13 C26 8.71 26 4.42 26 0 C31.61 0 37.22 0 43 0 C42.01 0.66 41.02 1.32 40 2 C39.42006301 4.19454681 39.42006301 4.19454681 39.3125 6.625 C39.24675781 7.44226563 39.18101563 8.25953125 39.11328125 9.1015625 C39.07589844 9.72804688 39.03851563 10.35453125 39 11 C40.32 11.33 41.64 11.66 43 12 C43 12.66 43 13.32 43 14 C37.72 14 32.44 14 27 14 C26.67 17.96 26.34 21.92 26 26 C17.42 26 8.84 26 0 26 C0 17.42 0 8.84 0 0 Z " fill="#D1D1D1" transform="translate(13,374)"/>
<path d="M0 0 C4.29 0 8.58 0 13 0 C13 17.16 13 34.32 13 52 C8.71 52 4.42 52 0 52 C0 34.84 0 17.68 0 0 Z " fill="#A2A2A2" transform="translate(234,101)"/>
<path d="M0 0 C17.16 0 34.32 0 52 0 C52 4.29 52 8.58 52 13 C34.84 13 17.68 13 0 13 C0 8.71 0 4.42 0 0 Z " fill="#BEBEBE" transform="translate(169,88)"/>
<path d="M0 0 C0.84827362 0.00444122 1.69654724 0.00888245 2.57052612 0.01345825 C3.53137115 0.01360931 4.49221619 0.01376038 5.48217773 0.01391602 C6.52179657 0.02423859 7.56141541 0.03456116 8.63253784 0.04519653 C9.6951181 0.04802643 10.75769836 0.05085632 11.85247803 0.05377197 C15.25584033 0.06499264 18.6589422 0.09010066 22.06222534 0.11550903 C24.36560697 0.12553639 26.6689927 0.13466266 28.97238159 0.14285278 C34.62743029 0.16493815 40.28228362 0.19948088 45.93722534 0.24050903 C45.93722534 4.20050903 45.93722534 8.16050903 45.93722534 12.24050903 C29.76722534 12.24050903 13.59722534 12.24050903 -3.06277466 12.24050903 C-4.17722963 10.01159908 -4.22757752 8.70995797 -4.25027466 6.24050903 C-4.26445435 5.53925903 -4.27863403 4.83800903 -4.29324341 4.11550903 C-3.94168249 1.25535238 -2.81668044 0.32841061 0 0 Z " fill="#606060" transform="translate(175.06277465820313,61.759490966796875)"/>
<path d="M0 0 C4.29 0 8.58 0 13 0 C13.02682299 4.31254083 13.04675244 8.62491707 13.0625 12.9375 C13.07087891 14.16919922 13.07925781 15.40089844 13.08789062 16.66992188 C13.09111328 17.83974609 13.09433594 19.00957031 13.09765625 20.21484375 C13.10289307 21.29886475 13.10812988 22.38288574 13.11352539 23.49975586 C13 26 13 26 12 27 C8.37 27 4.74 27 1 27 C1 39.21 1 51.42 1 64 C4.465 63.505 4.465 63.505 8 63 C8.33 63.33 8.66 63.66 9 64 C9.99 63.505 9.99 63.505 11 63 C11.66 63.33 12.32 63.66 13 64 C13 68.95 13 73.9 13 79 C8.71 79 4.42 79 0 79 C0 52.93 0 26.86 0 0 Z " fill="#737373" transform="translate(104,113)"/>
<path d="M0 0 C-0.33 4.29 -0.66 8.58 -1 13 C11.87 13 24.74 13 38 13 C38 17.29 38 21.58 38 26 C33.71 26 29.42 26 25 26 C25 22.04 25 18.08 25 14 C3.55 14 -17.9 14 -40 14 C-40 13.67 -40 13.34 -40 13 C-33.565 12.505 -33.565 12.505 -27 12 C-27 8.37 -27 4.74 -27 1 C-17.98185679 -0.14516104 -9.0719352 -0.09471858 0 0 Z " fill="#D3D3D3" transform="translate(209,48)"/>
<path d="M0 0 C10.23 0 20.46 0 31 0 C30.67 0.66 30.34 1.32 30 2 C29.01 2.33 28.02 2.66 27 3 C26.67 5.97 26.34 8.94 26 12 C26.99 11.67 27.98 11.34 29 11 C29.33 11.66 29.66 12.32 30 13 C24.39 13 18.78 13 13 13 C13 17.29 13 21.58 13 26 C8.71 26 4.42 26 0 26 C0 17.42 0 8.84 0 0 Z " fill="#9F9F9F" transform="translate(26,361)"/>
<path d="M0 0 C8.58 0 17.16 0 26 0 C26 8.58 26 17.16 26 26 C21.71 26 17.42 26 13 26 C13 21.71 13 17.42 13 13 C8.71 13 4.42 13 0 13 C0 8.71 0 4.42 0 0 Z " fill="#666666" transform="translate(117,205)"/>
<path d="M0 0 C4.29 0 8.58 0 13 0 C13 8.58 13 17.16 13 26 C4.42 26 -4.16 26 -13 26 C-13 21.71 -13 17.42 -13 13 C-8.71 13 -4.42 13 0 13 C0 8.71 0 4.42 0 0 Z " fill="#7D7D7D" transform="translate(260,205)"/>
<path d="M0 0 C4.29 0 8.58 0 13 0 C13 12.87 13 25.74 13 39 C9.04 39 5.08 39 1 39 C0 38 0 38 -0.11352539 34.39819336 C-0.11336625 32.79540144 -0.10767063 31.1926044 -0.09765625 29.58984375 C-0.0962413 28.74780899 -0.09482635 27.90577423 -0.09336853 27.03822327 C-0.08775263 24.33794665 -0.07519748 21.63775172 -0.0625 18.9375 C-0.05748705 17.11132932 -0.05292379 15.28515734 -0.04882812 13.45898438 C-0.03777804 8.97262458 -0.02050279 4.48632616 0 0 Z " fill="#A4A4A4" transform="translate(143,114)"/>
<path d="M0 0 C4.29 0 8.58 0 13 0 C13 4.29 13 8.58 13 13 C8.71 13 4.42 13 0 13 C0 16.96 0 20.92 0 25 C-8.58 25 -17.16 25 -26 25 C-26 21.04 -26 17.08 -26 13 C-17.30477491 11.91309686 -8.74477436 11.90235364 0 12 C0 8.04 0 4.08 0 0 Z " fill="#DADADA" transform="translate(208,140)"/>
<path d="M0 0 C12.87 0 25.74 0 39 0 C39 4.29 39 8.58 39 13 C26.46 12.67 13.92 12.34 1 12 C0.67 8.04 0.34 4.08 0 0 Z " fill="#9B9B9B" transform="translate(169,166)"/>
<path d="M0 0 C0.33 0 0.66 0 1 0 C1 4.29 1 8.58 1 13 C4.96 13 8.92 13 13 13 C13 21.58 13 30.16 13 39 C9.04 39 5.08 39 1 39 C1 47.58 1 56.16 1 65 C0.67 65 0.34 65 0 65 C0 43.55 0 22.1 0 0 Z " fill="#858585" transform="translate(286,127)"/>
<path d="M0 0 C4.29 0 8.58 0 13 0 C13 3.96 13 7.92 13 12 C7.06 12.495 7.06 12.495 1 13 C1 21.25 1 29.5 1 38 C4.96 38.33 8.92 38.66 13 39 C14.21245921 43.84983684 13.65227848 47.07167374 13 52 C8.71 52 4.42 52 0 52 C0 34.84 0 17.68 0 0 Z " fill="#E5E5E5" transform="translate(169,101)"/>
<path d="M0 0 C4.29 0 8.58 0 13 0 C13 3.96 13 7.92 13 12 C17.29 12 21.58 12 26 12 C26.8372965 17.02377899 27.0861953 21.00067249 27 26 C22.38 26 17.76 26 13 26 C13 21.71 13 17.42 13 13 C8.71 13 4.42 13 0 13 C0 8.71 0 4.42 0 0 Z " fill="#6A6A6A" transform="translate(143,166)"/>
<path d="M0 0 C17.85649203 -0.18451025 17.85649203 -0.18451025 26 1 C26.33 4.96 26.66 8.92 27 13 C30.96 13.33 34.92 13.66 39 14 C39 18.29 39 22.58 39 27 C29.72265625 27.09765625 29.72265625 27.09765625 27 27 C26 26 26 26 25.90234375 23.27734375 C25.93489583 20.18489583 25.96744792 17.09244792 26 14 C21.71 14 17.42 14 13 14 C13 9.71 13 5.42 13 1 C8.71 1 4.42 1 0 1 C0 0.67 0 0.34 0 0 Z " fill="#C1C1C1" transform="translate(247,74)"/>
<path d="M0 0 C8.58 0 17.16 0 26 0 C26 3.96 26 7.92 26 12 C24.33657163 13.66342837 22.2174291 13.36048097 19.9375 13.5625 C17.4934375 13.7790625 17.4934375 13.7790625 15 14 C14.67 17.3 14.34 20.6 14 24 C13.67 24 13.34 24 13 24 C13 20.37 13 16.74 13 13 C12.14535156 13.01160156 11.29070312 13.02320312 10.41015625 13.03515625 C9.30542969 13.04417969 8.20070312 13.05320312 7.0625 13.0625 C5.96035156 13.07410156 4.85820312 13.08570312 3.72265625 13.09765625 C1 13 1 13 0 12 C0 8.04 0 4.08 0 0 Z " fill="#5D5D5D" transform="translate(234,75)"/>
<path d="M0 0 C4.29 0 8.58 0 13 0 C13.77949991 8.88629899 14.09554865 17.11388317 13 26 C8.71 26 4.42 26 0 26 C0 17.42 0 8.84 0 0 Z " fill="#C2C2C2" transform="translate(13,374)"/>
<path d="M0 0 C8.58 0 17.16 0 26 0 C26 3.96 26 7.92 26 12 C17.28337589 12.85040235 8.75879358 13.08758794 0 13 C0 8.71 0 4.42 0 0 Z " fill="#7E7E7E" transform="translate(208,166)"/>
<path d="M0 0 C25.74 0 51.48 0 78 0 C78 4.29 78 8.58 78 13 C73.71 13 69.42 13 65 13 C65 9.04 65 5.08 65 1 C43.55 1 22.1 1 0 1 C0 0.67 0 0.34 0 0 Z " fill="#AAAAAA" transform="translate(169,61)"/>
<path d="M0 0 C0.99 0 1.98 0 3 0 C3 4.29 3 8.58 3 13 C6.96 13 10.92 13 15 13 C15 18.28 15 23.56 15 29 C14.01 29.33 13.02 29.66 12 30 C11.67 29.01 11.34 28.02 11 27 C9.700625 26.855625 8.40125 26.71125 7.0625 26.5625 C3.125 26.125 3.125 26.125 2 25 C1.85884839 22.32941149 1.95752893 19.67567762 2 17 C1.34 16.67 0.68 16.34 0 16 C0.66 15.34 1.32 14.68 2 14 C1.01 13.67 0.02 13.34 -1 13 C-1.33 13.66 -1.66 14.32 -2 15 C-2.33 13.02 -2.66 11.04 -3 9 C-2.01 9 -1.02 9 0 9 C0 6.03 0 3.06 0 0 Z M-2 10 C-1 12 -1 12 -1 12 Z " fill="#666666" transform="translate(349,335)"/>
<path d="M0 0 C5.94 0 11.88 0 18 0 C19.125 9.625 19.125 9.625 18 13 C-3.12 13 -24.24 13 -46 13 C-46 12.67 -46 12.34 -46 12 C-20.755 11.505 -20.755 11.505 5 11 C5 7.7 5 4.4 5 1 C3.35 1 1.7 1 0 1 C0 0.67 0 0.34 0 0 Z " fill="#676767" transform="translate(216,218)"/>
<path d="M0 0 C5.47688475 -0.02496476 10.95373541 -0.04298372 16.43066406 -0.05493164 C18.28874286 -0.05991956 20.14681782 -0.06671228 22.00488281 -0.07543945 C32.06568546 -0.12146573 41.98061881 -0.05686164 52 1 C52 5.29 52 9.58 52 14 C47.71 14 43.42 14 39 14 C39 9.71 39 5.42 39 1 C26.13 1 13.26 1 0 1 C0 0.67 0 0.34 0 0 Z " fill="#939393" transform="translate(182,87)"/>
<path d="M0 0 C6.6 0 13.2 0 20 0 C21.28571429 15 21.28571429 15 20 21 C19.67 21 19.34 21 19 21 C18.67 18.69 18.34 16.38 18 14 C16.95199219 14.01740234 16.95199219 14.01740234 15.8828125 14.03515625 C14.97273438 14.04417969 14.06265625 14.05320312 13.125 14.0625 C12.22007812 14.07410156 11.31515625 14.08570313 10.3828125 14.09765625 C8 14 8 14 6 13 C6 10.36 6 7.72 6 5 C5.01 4.67 4.02 4.34 3 4 C3 3.34 3 2.68 3 2 C2.01 1.67 1.02 1.34 0 1 C0 0.67 0 0.34 0 0 Z " fill="#5D5D5D" transform="translate(319,322)"/>
<path d="M0 0 C10.05859375 -0.09765625 10.05859375 -0.09765625 13 0 C14 1 14 1 14.12025452 3.09437561 C14.1169236 4.47670631 14.1169236 4.47670631 14.11352539 5.88696289 C14.11344986 6.92796646 14.11337433 7.96897003 14.11329651 9.04151917 C14.10813522 10.1737944 14.10297394 11.30606964 14.09765625 12.47265625 C14.0962413 13.62543564 14.09482635 14.77821503 14.09336853 15.96592712 C14.08775005 19.66481064 14.07519442 23.36363464 14.0625 27.0625 C14.05748738 29.56315017 14.05292406 32.06380129 14.04882812 34.56445312 C14.03777462 40.70965588 14.02101852 46.85482369 14 53 C13.67 53 13.34 53 13 53 C12.67 40.13 12.34 27.26 12 14 C8.37 13.67 4.74 13.34 1 13 C0.67 8.71 0.34 4.42 0 0 Z " fill="#696969" transform="translate(247,100)"/>
<path d="M0 0 C8.91 0 17.82 0 27 0 C27 4.29 27 8.58 27 13 C26.01 13 25.02 13 24 13 C24 13.66 24 14.32 24 15 C17.9453125 15.1953125 17.9453125 15.1953125 16 15 C14 13 14 13 13.8046875 10.1796875 C13.86979167 7.11979167 13.93489583 4.05989583 14 1 C9.38 1 4.76 1 0 1 C0 0.67 0 0.34 0 0 Z " fill="#5D5D5D" transform="translate(272,296)"/>
<path d="M0 0 C0.33 0 0.66 0 1 0 C1 8.58 1 17.16 1 26 C-3.62 26 -8.24 26 -13 26 C-13 21.71 -13 17.42 -13 13 C-8.71 13 -4.42 13 0 13 C0 8.71 0 4.42 0 0 Z " fill="#B9B9B9" transform="translate(286,192)"/>
<path d="M0 0 C4.29 0 8.58 0 13 0 C13.33 3.96 13.66 7.92 14 12 C23.57 12 33.14 12 43 12 C43 12.33 43 12.66 43 13 C38.96558604 13.02513051 34.93120375 13.04305855 30.89672852 13.05493164 C29.53050948 13.05989273 28.16429556 13.06666372 26.7980957 13.07543945 C17.80173793 13.13168737 8.96139459 12.80658902 0 12 C0 8.04 0 4.08 0 0 Z " fill="#818181" transform="translate(156,166)"/>
<path d="M0 0 C0.99 0.33 1.98 0.66 3 1 C5.22574335 1.22451458 7.45581519 1.40782878 9.6875 1.5625 C11.770625 1.706875 13.85375 1.85125 16 2 C16 6.62 16 11.24 16 16 C5.25 16.125 5.25 16.125 3 15 C3 11.37 3 7.74 3 4 C2.34 4 1.68 4 1 4 C0.67 2.68 0.34 1.36 0 0 Z " fill="#5A5A5A" transform="translate(361,372)"/>
<path d="M0 0 C4.29 0 8.58 0 13 0 C13 4.29 13 8.58 13 13 C3.43 13 -6.14 13 -16 13 C-16 12.67 -16 12.34 -16 12 C-10.72 12 -5.44 12 0 12 C0 8.04 0 4.08 0 0 Z " fill="#E9E9E9" transform="translate(208,140)"/>
<path d="M0 0 C4.62 0 9.24 0 14 0 C15.06671952 3.20015856 14.94845472 4.88544294 14.5625 8.1875 C14.46066406 9.08855469 14.35882813 9.98960937 14.25390625 10.91796875 C14.17011719 11.60503906 14.08632812 12.29210937 14 13 C12.41773035 13.19627391 10.83410729 13.38165538 9.25 13.5625 C8.36828125 13.66691406 7.4865625 13.77132813 6.578125 13.87890625 C4 14 4 14 0 13 C0 8.71 0 4.42 0 0 Z " fill="#808080" transform="translate(65,335)"/>
<path d="M0 0 C6.6 0 13.2 0 20 0 C20 4.29 20 8.58 20 13 C17.27157939 14.36421031 15.39046682 13.87807211 12.375 13.5625 C11.37210938 13.46066406 10.36921875 13.35882813 9.3359375 13.25390625 C8.56507813 13.17011719 7.79421875 13.08632813 7 13 C6.92652344 12.06027344 6.92652344 12.06027344 6.8515625 11.1015625 C6.77679688 10.28429687 6.70203125 9.46703125 6.625 8.625 C6.52058594 7.40683594 6.52058594 7.40683594 6.4140625 6.1640625 C6.17107412 3.79665809 6.17107412 3.79665809 4 2 C2.68 1.34 1.36 0.68 0 0 Z " fill="#535353" transform="translate(240,283)"/>
<path d="M0 0 C0.33 0 0.66 0 1 0 C1 4.29 1 8.58 1 13 C4.96 13 8.92 13 13 13 C13 17.29 13 21.58 13 26 C8.71 26 4.42 26 0 26 C0 17.42 0 8.84 0 0 Z " fill="#BFBFBF" transform="translate(286,101)"/>
<path d="M0 0 C4.29 0 8.58 0 13 0 C13 4.62 13 9.24 13 14 C8.71 14 4.42 14 0 14 C0 9.38 0 4.76 0 0 Z " fill="#A8A8A8" transform="translate(104,113)"/>
<path d="M0 0 C4.29 0 8.58 0 13 0 C13 4.29 13 8.58 13 13 C4.42 13 -4.16 13 -13 13 C-13 12.67 -13 12.34 -13 12 C-8.71 12 -4.42 12 0 12 C0 8.04 0 4.08 0 0 Z " fill="#9E9E9E" transform="translate(156,62)"/>
<path d="M0 0 C4.29 0 8.58 0 13 0 C13.93491183 4.67455917 14.07972012 8.2965127 14 13 C9.38 13 4.76 13 0 13 C0 8.71 0 4.42 0 0 Z " fill="#626262" transform="translate(156,179)"/>
<path d="M0 0 C8.58 0 17.16 0 26 0 C26 0.33 26 0.66 26 1 C21.71 1 17.42 1 13 1 C13 4.96 13 8.92 13 13 C8.71 13 4.42 13 0 13 C0 8.71 0 4.42 0 0 Z " fill="#D7D7D7" transform="translate(143,61)"/>
<path d="M0 0 C4.62 0 9.24 0 14 0 C14.125 10.75 14.125 10.75 13 13 C8.71 13 4.42 13 0 13 C0 8.71 0 4.42 0 0 Z " fill="#5F5F5F" transform="translate(221,179)"/>
<path d="M0 0 C4.62 0 9.24 0 14 0 C14.125 9.75 14.125 9.75 13 12 C9.01624339 13.17169312 5.12560776 13.08089427 1 13 C-0.92572521 9.14854957 -0.04883218 4.19956748 0 0 Z " fill="#D0D0D0" transform="translate(234,270)"/>
<path d="M0 0 C3.35286458 0.03255208 6.70572917 0.06510417 10.05859375 0.09765625 C10.38859375 4.38765625 10.71859375 8.67765625 11.05859375 13.09765625 C6.43859375 13.09765625 1.81859375 13.09765625 -2.94140625 13.09765625 C-3.8203125 3.8203125 -3.8203125 3.8203125 -3.94140625 1.09765625 C-2.94140625 0.09765625 -2.94140625 0.09765625 0 0 Z " fill="#BEBEBE" transform="translate(223.94140625,269.90234375)"/>
<path d="M0 0 C4.62 0 9.24 0 14 0 C14 4.29 14 8.58 14 13 C4.8203125 13.1953125 4.8203125 13.1953125 2 13 C0 11 0 11 -0.1953125 8.3984375 C-0.13020833 5.59895833 -0.06510417 2.79947917 0 0 Z " fill="#CBCBCB" transform="translate(156,270)"/>
<path d="M0 0 C4.29 0 8.58 0 13 0 C13 4.29 13 8.58 13 13 C6.565 13.495 6.565 13.495 0 14 C0 9.38 0 4.76 0 0 Z " fill="#7B7B7B" transform="translate(39,348)"/>
<path d="M0 0 C4.62 0 9.24 0 14 0 C14 4.29 14 8.58 14 13 C9.71 13 5.42 13 1 13 C0.67 8.71 0.34 4.42 0 0 Z " fill="#D0D0D0" transform="translate(25,348)"/>
<path d="M0 0 C4.29 0 8.58 0 13 0 C13.33 4.29 13.66 8.58 14 13 C9.38 13 4.76 13 0 13 C0 8.71 0 4.42 0 0 Z " fill="#D8D8D8" transform="translate(156,244)"/>
<path d="M0 0 C4.29 0.33 8.58 0.66 13 1 C13 5.29 13 9.58 13 14 C8.71 14 4.42 14 0 14 C0 9.38 0 4.76 0 0 Z " fill="#767676" transform="translate(273,100)"/>
<path d="M0 0 C4.29 0 8.58 0 13 0 C13 4.29 13 8.58 13 13 C8.71 13 4.42 13 0 13 C0 8.71 0 4.42 0 0 Z " fill="#C6C6C6" transform="translate(378,387)"/>
<path d="M0 0 C4.29 0 8.58 0 13 0 C13 4.62 13 9.24 13 14 C12.34 13.67 11.68 13.34 11 13 C7.32984725 12.8622315 3.67388652 12.95728039 0 13 C0 8.71 0 4.42 0 0 Z " fill="#D2D2D2" transform="translate(13,374)"/>
<path d="M0 0 C4.29 0 8.58 0 13 0 C13 4.29 13 8.58 13 13 C8.71 13 4.42 13 0 13 C0 8.71 0 4.42 0 0 Z " fill="#A8A8A8" transform="translate(365,361)"/>
<path d="M0 0 C4.29 0 8.58 0 13 0 C13 4.29 13 8.58 13 13 C8.71 13 4.42 13 0 13 C0 8.71 0 4.42 0 0 Z " fill="#B8B8B8" transform="translate(39,335)"/>
<path d="M0 0 C4.29 0 8.58 0 13 0 C13 4.29 13 8.58 13 13 C8.71 13 4.42 13 0 13 C0 8.71 0 4.42 0 0 Z " fill="#CCCCCC" transform="translate(339,322)"/>
<path d="M0 0 C4.29 0 8.58 0 13 0 C13 4.29 13 8.58 13 13 C8.71 13 4.42 13 0 13 C0 8.71 0 4.42 0 0 Z " fill="#B3B3B3" transform="translate(52,322)"/>
<path d="M0 0 C4.29 0 8.58 0 13 0 C13 4.29 13 8.58 13 13 C8.71 13 4.42 13 0 13 C0 8.71 0 4.42 0 0 Z " fill="#C5C5C5" transform="translate(65,309)"/>
<path d="M0 0 C4.29 0 8.58 0 13 0 C13 4.29 13 8.58 13 13 C8.71 13 4.42 13 0 13 C0 8.71 0 4.42 0 0 Z " fill="#B8B8B8" transform="translate(300,296)"/>
<path d="M0 0 C4.29 0 8.58 0 13 0 C13 4.29 13 8.58 13 13 C8.71 13 4.42 13 0 13 C0 8.71 0 4.42 0 0 Z " fill="#A4A4A4" transform="translate(91,296)"/>
<path d="M0 0 C4.29 0 8.58 0 13 0 C13 4.29 13 8.58 13 13 C8.71 13 4.42 13 0 13 C0 8.71 0 4.42 0 0 Z " fill="#B1B1B1" transform="translate(117,283)"/>
<path d="M0 0 C4.29 0 8.58 0 13 0 C13 4.29 13 8.58 13 13 C8.71 13 4.42 13 0 13 C0 8.71 0 4.42 0 0 Z " fill="#D9D9D9" transform="translate(104,283)"/>
<path d="M0 0 C4.29 0 8.58 0 13 0 C13 4.29 13 8.58 13 13 C8.71 13 4.42 13 0 13 C0 8.71 0 4.42 0 0 Z " fill="#BDBDBD" transform="translate(273,283)"/>
<path d="M0 0 C4.29 0 8.58 0 13 0 C13 4.29 13 8.58 13 13 C8.71 13 4.42 13 0 13 C0 8.71 0 4.42 0 0 Z " fill="#7F7F7F" transform="translate(130,283)"/>
<path d="M0 0 C4.29 0 8.58 0 13 0 C13 4.29 13 8.58 13 13 C8.71 13 4.42 13 0 13 C0 8.71 0 4.42 0 0 Z " fill="#BFBFBF" transform="translate(221,244)"/>
<path d="M0 0 C4.29 0 8.58 0 13 0 C13 4.29 13 8.58 13 13 C8.71 13 4.42 13 0 13 C0 8.71 0 4.42 0 0 Z " fill="#BDBDBD" transform="translate(247,231)"/>
<path d="M0 0 C4.29 0 8.58 0 13 0 C13 4.29 13 8.58 13 13 C8.71 13 4.42 13 0 13 C0 8.71 0 4.42 0 0 Z " fill="#ACACAC" transform="translate(143,231)"/>
<path d="M0 0 C4.29 0 8.58 0 13 0 C13 4.29 13 8.58 13 13 C8.71 13 4.42 13 0 13 C0 8.71 0 4.42 0 0 Z " fill="#929292" transform="translate(130,218)"/>
<path d="M0 0 C4.29 0 8.58 0 13 0 C13 4.29 13 8.58 13 13 C8.71 13 4.42 13 0 13 C0 8.71 0 4.42 0 0 Z " fill="#757575" transform="translate(260,205)"/>
<path d="M0 0 C3.09244792 0.03255208 6.18489583 0.06510417 9.27734375 0.09765625 C9.27734375 4.38765625 9.27734375 8.67765625 9.27734375 13.09765625 C4.98734375 13.09765625 0.69734375 13.09765625 -3.72265625 13.09765625 C-5.02321229 10.49654417 -4.6537806 8.91024303 -4.34765625 6.03515625 C-4.25742188 5.13667969 -4.1671875 4.23820313 -4.07421875 3.3125 C-3.55748092 0.05705167 -3.36236106 0.12060119 0 0 Z " fill="#5E5E5E" transform="translate(250.72265625,204.90234375)"/>
<path d="M0 0 C4.29 0 8.58 0 13 0 C13 4.29 13 8.58 13 13 C8.71 13 4.42 13 0 13 C0 8.71 0 4.42 0 0 Z " fill="#969696" transform="translate(117,205)"/>
<path d="M0 0 C4.29 0 8.58 0 13 0 C13 4.29 13 8.58 13 13 C8.71 13 4.42 13 0 13 C0 8.71 0 4.42 0 0 Z " fill="#7A7A7A" transform="translate(273,192)"/>
<path d="M0 0 C4.29 0 8.58 0 13 0 C13 4.29 13 8.58 13 13 C8.71 13 4.42 13 0 13 C0 8.71 0 4.42 0 0 Z " fill="#5F5F5F" transform="translate(117,192)"/>
<path d="M0 0 C4.29 0 8.58 0 13 0 C13 4.29 13 8.58 13 13 C8.71 13 4.42 13 0 13 C0 8.71 0 4.42 0 0 Z " fill="#C2C2C2" transform="translate(104,192)"/>
<path d="M0 0 C4.29 0 8.58 0 13 0 C13 4.29 13 8.58 13 13 C8.71 13 4.42 13 0 13 C0 8.71 0 4.42 0 0 Z " fill="#8E8E8E" transform="translate(104,179)"/>
<path d="M0 0 C4.29 0 8.58 0 13 0 C13 4.29 13 8.58 13 13 C8.71 13 4.42 13 0 13 C0 8.71 0 4.42 0 0 Z " fill="#A3A3A3" transform="translate(221,153)"/>
<path d="M0 0 C4.29 0 8.58 0 13 0 C13 4.29 13 8.58 13 13 C8.71 13 4.42 13 0 13 C0 8.71 0 4.42 0 0 Z " fill="#AAAAAA" transform="translate(156,153)"/>
<path d="M0 0 C4.29 0 8.58 0 13 0 C13 4.29 13 8.58 13 13 C8.71 13 4.42 13 0 13 C0 8.71 0 4.42 0 0 Z " fill="#C3C3C3" transform="translate(221,140)"/>
<path d="M0 0 C4.29 0 8.58 0 13 0 C13 4.29 13 8.58 13 13 C8.71 13 4.42 13 0 13 C0 8.71 0 4.42 0 0 Z " fill="#BFBFBF" transform="translate(221,101)"/>
<path d="M0 0 C4.29 0 8.58 0 13 0 C13 4.29 13 8.58 13 13 C8.71 13 4.42 13 0 13 C0 8.71 0 4.42 0 0 Z " fill="#B4B4B4" transform="translate(156,101)"/>
<path d="M0 0 C4.29 0 8.58 0 13 0 C13 4.29 13 8.58 13 13 C8.71 13 4.42 13 0 13 C0 8.71 0 4.42 0 0 Z " fill="#8B8B8B" transform="translate(143,101)"/>
<path d="M0 0 C4.29 0 8.58 0 13 0 C13 4.29 13 8.58 13 13 C8.71 13 4.42 13 0 13 C0 8.71 0 4.42 0 0 Z " fill="#A6A6A6" transform="translate(169,88)"/>
<path d="M0 0 C4.29 0 8.58 0 13 0 C13 4.29 13 8.58 13 13 C8.71 13 4.42 13 0 13 C0 8.71 0 4.42 0 0 Z " fill="#8C8C8C" transform="translate(156,88)"/>
<path d="M0 0 C4.29 0 8.58 0 13 0 C13 4.29 13 8.58 13 13 C11.22625 12.979375 9.4525 12.95875 7.625 12.9375 C3.6610984 12.79046808 3.6610984 12.79046808 0 14 C0 9.38 0 4.76 0 0 Z " fill="#5D5D5D" transform="translate(130,88)"/>
<path d="M0 0 C4.29 0 8.58 0 13 0 C13 4.29 13 8.58 13 13 C8.71 13 4.42 13 0 13 C0 8.71 0 4.42 0 0 Z " fill="#BCBCBC" transform="translate(117,88)"/>
<path d="M0 0 C4.29 0 8.58 0 13 0 C13 4.29 13 8.58 13 13 C8.71 13 4.42 13 0 13 C0 8.71 0 4.42 0 0 Z " fill="#C2C2C2" transform="translate(130,74)"/>
<path d="M0 0 C9.27734375 -0.09765625 9.27734375 -0.09765625 12 0 C13 1 13 1 13.09765625 3.72265625 C13.04882812 8.36132812 13.04882812 8.36132812 13 13 C8.71 13 4.42 13 0 13 C0 8.71 0 4.42 0 0 Z " fill="#6C6C6C" transform="translate(52,335)"/>
<path d="M0 0 C4.29 0 8.58 0 13 0 C13 4.29 13 8.58 13 13 C3.72265625 13.09765625 3.72265625 13.09765625 1 13 C0 12 0 12 -0.09765625 9.27734375 C-0.06510417 6.18489583 -0.03255208 3.09244792 0 0 Z " fill="#B9B9B9" transform="translate(169,244)"/>
<path d="M0 0 C4.29 0 8.58 0 13 0 C13 4.29 13 8.58 13 13 C3.72265625 13.09765625 3.72265625 13.09765625 1 13 C0 12 0 12 -0.09765625 9.27734375 C-0.06510417 6.18489583 -0.03255208 3.09244792 0 0 Z " fill="#999999" transform="translate(143,140)"/>
<path d="M0 0 C3.09244792 0.03255208 6.18489583 0.06510417 9.27734375 0.09765625 C9.27734375 4.38765625 9.27734375 8.67765625 9.27734375 13.09765625 C4.98734375 13.09765625 0.69734375 13.09765625 -3.72265625 13.09765625 C-3.8203125 3.8203125 -3.8203125 3.8203125 -3.72265625 1.09765625 C-2.72265625 0.09765625 -2.72265625 0.09765625 0 0 Z " fill="#E5E5E5" transform="translate(211.72265625,100.90234375)"/>
<path d="M0 0 C0 4.29 0 8.58 0 13 C-4.29 13 -8.58 13 -13 13 C-13.125 2.25 -13.125 2.25 -12 0 C-7.3863213 -1.18024339 -4.91931944 -0.81988657 0 0 Z " fill="#5B5B5B" transform="translate(286,179)"/>
<path d="M0 0 C4.29 0 8.58 0 13 0 C13 4.29 13 8.58 13 13 C2.25 13.125 2.25 13.125 0 12 C0 8.04 0 4.08 0 0 Z " fill="#909090" transform="translate(234,101)"/>
<path d="M0 0 C3.96 0 7.92 0 12 0 C12 4.29 12 8.58 12 13 C7.71 13 3.42 13 -1 13 C-1.125 2.25 -1.125 2.25 0 0 Z " fill="#AAAAAA" transform="translate(27,374)"/>
<path d="M0 0 C3.96 0 7.92 0 12 0 C13.45781334 4.37344001 13.0598032 8.39515357 13 13 C8.71 13 4.42 13 0 13 C0 8.71 0 4.42 0 0 Z " fill="#D7D7D7" transform="translate(326,309)"/>
<path d="M0 0 C4.29 0 8.58 0 13 0 C13.125 8.5 13.125 8.5 12 13 C8.04 13 4.08 13 0 13 C0 8.71 0 4.42 0 0 Z " fill="#D0D0D0" transform="translate(352,335)"/>
<path d="M0 0 C4.29 0 8.58 0 13 0 C13 4.29 13 8.58 13 13 C9 13 5 13 1 13 C-0.92572521 9.14854957 -0.04883218 4.19956748 0 0 Z " fill="#808080" transform="translate(313,309)"/>
<path d="M0 0 C4.29 0 8.58 0 13 0 C14.92024768 3.84049536 13.43149256 8.87684882 13 13 C8.71 13 4.42 13 0 13 C0 8.71 0 4.42 0 0 Z " fill="#747474" transform="translate(234,218)"/>
<path d="M0 0 C4.29 0 8.58 0 13 0 C13 3.96 13 7.92 13 12 C6.565 12.495 6.565 12.495 0 13 C0 8.71 0 4.42 0 0 Z " fill="#D6D6D6" transform="translate(169,101)"/>
<path d="M0 0 C3.70899973 0.03341441 7.30955121 0.57087805 11 1 C11 5.62 11 10.24 11 15 C10.67 14.34 10.34 13.68 10 13 C9.07767578 13.10828125 9.07767578 13.10828125 8.13671875 13.21875 C7.32847656 13.3115625 6.52023438 13.404375 5.6875 13.5 C4.88699219 13.5928125 4.08648437 13.685625 3.26171875 13.78125 C1 14 1 14 -2 14 C-2.05389087 12.04196493 -2.09274217 10.08351091 -2.125 8.125 C-2.14820313 7.03445312 -2.17140625 5.94390625 -2.1953125 4.8203125 C-2 2 -2 2 0 0 Z " fill="#6D6D6D" transform="translate(132,100)"/>
<path d="M0 0 C0 4.29 0 8.58 0 13 C-3.96 13 -7.92 13 -12 13 C-12 8.71 -12 4.42 -12 0 C-8.34649162 -1.82675419 -3.94412788 -0.45509168 0 0 Z " fill="#D2D2D2" transform="translate(286,88)"/>
<path d="M0 0 C4.29 0 8.58 0 13 0 C13 3.96 13 7.92 13 12 C8.31871573 12.93625685 5.58415445 12.96972498 1 12 C-0.82089479 8.35821043 -0.05121113 3.99446852 0 0 Z " fill="#707070" transform="translate(247,75)"/>
<path d="M0 0 C3.96 0 7.92 0 12 0 C12 4.29 12 8.58 12 13 C8.04 13 4.08 13 0 13 C0 8.71 0 4.42 0 0 Z " fill="#8E8E8E" transform="translate(261,283)"/>
<path d="M0 0 C3.96 0 7.92 0 12 0 C12 4.29 12 8.58 12 13 C8.04 13 4.08 13 0 13 C0 8.71 0 4.42 0 0 Z " fill="#ABABAB" transform="translate(261,218)"/>
<path d="M0 0 C3.96 0 7.92 0 12 0 C12 4.29 12 8.58 12 13 C8.04 13 4.08 13 0 13 C0 8.71 0 4.42 0 0 Z " fill="#BDBDBD" transform="translate(287,179)"/>
<path d="M0 0 C3.96 0 7.92 0 12 0 C12 4.29 12 8.58 12 13 C8.04 13 4.08 13 0 13 C0 8.71 0 4.42 0 0 Z " fill="#9F9F9F" transform="translate(287,166)"/>
<path d="M0 0 C3.96 0 7.92 0 12 0 C12 4.29 12 8.58 12 13 C8.04 13 4.08 13 0 13 C0 8.71 0 4.42 0 0 Z " fill="#666666" transform="translate(235,166)"/>
<path d="M0 0 C4.29 0 8.58 0 13 0 C13 3.96 13 7.92 13 12 C8.71 12 4.42 12 0 12 C0 8.04 0 4.08 0 0 Z " fill="#8C8C8C" transform="translate(208,166)"/>
<path d="M0 0 C4.29 0 8.58 0 13 0 C13 3.96 13 7.92 13 12 C8.71 12 4.42 12 0 12 C0 8.04 0 4.08 0 0 Z " fill="#858585" transform="translate(234,153)"/>
<path d="M0 0 C4.29 0 8.58 0 13 0 C13 3.96 13 7.92 13 12 C8.71 12 4.42 12 0 12 C0 8.04 0 4.08 0 0 Z " fill="#AEAEAE" transform="translate(208,88)"/>
<path d="M0 0 C4.29 0.33 8.58 0.66 13 1 C13 4.96 13 8.92 13 13 C9.04 13 5.08 13 1 13 C0.67 8.71 0.34 4.42 0 0 Z " fill="#858585" transform="translate(143,152)"/>
<path d="M0 0 C0.83920486 0.00141495 1.67840973 0.0028299 2.54304504 0.00428772 C5.22274341 0.0098841 7.90235815 0.0224359 10.58203125 0.03515625 C12.39908733 0.04017172 14.21614473 0.04473454 16.03320312 0.04882812 C20.48701138 0.05985234 24.94075714 0.07711447 29.39453125 0.09765625 C29.39453125 0.42765625 29.39453125 0.75765625 29.39453125 1.09765625 C27.08453125 1.09765625 24.77453125 1.09765625 22.39453125 1.09765625 C22.88953125 2.58265625 22.88953125 2.58265625 23.39453125 4.09765625 C22.39453125 5.09765625 22.39453125 5.09765625 20.546875 5.1953125 C18.49609375 5.16276042 16.4453125 5.13020833 14.39453125 5.09765625 C14.39453125 4.76765625 14.39453125 4.43765625 14.39453125 4.09765625 C-5.40546875 3.60265625 -5.40546875 3.60265625 -25.60546875 3.09765625 C-25.60546875 2.43765625 -25.60546875 1.77765625 -25.60546875 1.09765625 C-24.14173828 1.11505859 -24.14173828 1.11505859 -22.6484375 1.1328125 C-21.37613281 1.14183594 -20.10382813 1.15085937 -18.79296875 1.16015625 C-16.89611328 1.17755859 -16.89611328 1.17755859 -14.9609375 1.1953125 C-9.91516642 1.04846235 -5.16627599 -0.03268846 0 0 Z " fill="#4F4F4F" transform="translate(185.60546875,305.90234375)"/>
<path d="M0 0 C3.96 0 7.92 0 12 0 C12 3.96 12 7.92 12 12 C8.04 12 4.08 12 0 12 C0 8.04 0 4.08 0 0 Z " fill="#C7C7C7" transform="translate(170,153)"/>
<path d="M0 0 C0.33 0 0.66 0 1 0 C1 3.96 1 7.92 1 12 C13.87 12 26.74 12 40 12 C40 11.34 40 10.68 40 10 C43.63 10 47.26 10 51 10 C51.495 11.485 51.495 11.485 52 13 C34.84 13 17.68 13 0 13 C0 8.71 0 4.42 0 0 Z " fill="#BDBDBD" transform="translate(169,153)"/>
<path d="M0 0 C3.96 0 7.92 0 12 0 C12 0.33 12 0.66 12 1 C8.37 1 4.74 1 1 1 C1 13.21 1 25.42 1 38 C4.465 37.505 4.465 37.505 8 37 C8.33 37.33 8.66 37.66 9 38 C9.99 37.505 9.99 37.505 11 37 C11.66 37.33 12.32 37.66 13 38 C13 38.66 13 39.32 13 40 C8.71 40 4.42 40 0 40 C0 26.8 0 13.6 0 0 Z " fill="#646464" transform="translate(104,139)"/>
<path d="M0 0 C1.8871875 0.0309375 1.8871875 0.0309375 3.8125 0.0625 C3.8125 1.7125 3.8125 3.3625 3.8125 5.0625 C0.1825 5.0625 -3.4475 5.0625 -7.1875 5.0625 C-7.1875 3.7425 -7.1875 2.4225 -7.1875 1.0625 C-4.43671116 0.14557039 -2.82801087 -0.04636083 0 0 Z " fill="#D2D2D2" transform="translate(268.1875,81.9375)"/>
<path d="M0 0 C1.32 0.33 2.64 0.66 4 1 C3.67 1.33 3.34 1.66 3 2 C2.92794489 3.68608966 2.91613932 5.37500659 2.9375 7.0625 C2.94652344 7.98160156 2.95554688 8.90070313 2.96484375 9.84765625 C2.97644531 10.55792969 2.98804688 11.26820312 3 12 C5.64 12 8.28 12 11 12 C11 12.33 11 12.66 11 13 C6.545 13.495 6.545 13.495 2 14 C1.67 16.64 1.34 19.28 1 22 C0.67 22 0.34 22 0 22 C0 14.74 0 7.48 0 0 Z " fill="#6F6F6F" transform="translate(169,62)"/>
<path d="M0 0 C0 0.33 0 0.66 0 1 C-2.31 1 -4.62 1 -7 1 C-7 4.96 -7 8.92 -7 13 C-3.04 13 0.92 13 5 13 C5 13.33 5 13.66 5 14 C0.71 14 -3.58 14 -8 14 C-8 9.71 -8 5.42 -8 1 C-12.29 1 -16.58 1 -21 1 C-21 0.67 -21 0.34 -21 0 C-13.81949816 -0.71148265 -7.12971149 -1.25818438 0 0 Z " fill="#7A7A7A" transform="translate(151,87)"/>
<path d="M0 0 C8.58 0 17.16 0 26 0 C26 0.33 26 0.66 26 1 C18.08 1.33 10.16 1.66 2 2 C1.47825081 8.32917961 1.47825081 8.32917961 3 11 C2.67 11.66 2.34 12.32 2 13 C1.34 13 0.68 13 0 13 C0 8.71 0 4.42 0 0 Z M-2 13 C0 14 0 14 0 14 Z " fill="#454545" transform="translate(104,296)"/>
<path d="M0 0 C6.27 0 12.54 0 19 0 C18.67 0.66 18.34 1.32 18 2 C15.4375 2.625 15.4375 2.625 13 3 C13 5.31 13 7.62 13 10 C12.01 10.495 12.01 10.495 11 11 C10.67 8.03 10.34 5.06 10 2 C6.7 1.67 3.4 1.34 0 1 C0 0.67 0 0.34 0 0 Z " fill="#626262" transform="translate(78,309)"/>
<path d="M0 0 C0.66 0 1.32 0 2 0 C2 4.29 2 8.58 2 13 C1.01 13 0.02 13 -1 13 C-1.33 13.66 -1.66 14.32 -2 15 C-2.33 13.02 -2.66 11.04 -3 9 C-2.01 9 -1.02 9 0 9 C0 6.03 0 3.06 0 0 Z M-2 10 C-1 12 -1 12 -1 12 Z " fill="#545454" transform="translate(349,335)"/>
<path d="M0 0 C4.29 0 8.58 0 13 0 C13 0.66 13 1.32 13 2 C12.34 2 11.68 2 11 2 C11 2.66 11 3.32 11 4 C8.36 4 5.72 4 3 4 C3.33 3.34 3.66 2.68 4 2 C2.68 2 1.36 2 0 2 C0 1.34 0 0.68 0 0 Z " fill="#DBDBDB" transform="translate(117,218)"/>
<path d="M0 0 C2.64 0 5.28 0 8 0 C8 0.66 8 1.32 8 2 C6 3.625 6 3.625 4 5 C4 3.68 4 2.36 4 1 C1.65026182 2.89755144 1.65026182 2.89755144 1.875 6.125 C1.91625 7.07375 1.9575 8.0225 2 9 C1.01 9.495 1.01 9.495 0 10 C0 6.7 0 3.4 0 0 Z " fill="#606060" transform="translate(65,322)"/>
<path d="M0 0 C0.66 0 1.32 0 2 0 C1.979375 0.928125 1.95875 1.85625 1.9375 2.8125 C1.84230396 6.02286011 1.84230396 6.02286011 3 9 C2.72230092 11.3406065 2.39460023 13.67624308 2 16 C1.34 16 0.68 16 0 16 C0 10.72 0 5.44 0 0 Z " fill="#B8B8B8" transform="translate(117,384)"/>
<path d="M0 0 C0.66 0 1.32 0 2 0 C2 0.66 2 1.32 2 2 C2.66 2.33 3.32 2.66 4 3 C3.34 3 2.68 3 2 3 C2 5.97 2 8.94 2 12 C1.34 12 0.68 12 0 12 C0 8.04 0 4.08 0 0 Z " fill="#888888" transform="translate(130,283)"/>
<path d="M0 0 C0.99 0.33 1.98 0.66 3 1 C3 4.3 3 7.6 3 11 C2.01 11 1.02 11 0 11 C0 7.37 0 3.74 0 0 Z " fill="#494949" transform="translate(114,140)"/>
<path d="M0 0 C1.98 0.99 1.98 0.99 4 2 C4 6.29 4 10.58 4 15 C3.67 15 3.34 15 3 15 C3 11.37 3 7.74 3 4 C2.34 4 1.68 4 1 4 C0.67 2.68 0.34 1.36 0 0 Z " fill="#4D4D4D" transform="translate(361,372)"/>
<path d="M0 0 C2 2 2 2 2.0625 5.5 C2.041875 6.655 2.02125 7.81 2 9 C2.33 9.66 2.66 10.32 3 11 C2.67 11.66 2.34 12.32 2 13 C1.34 13 0.68 13 0 13 C0 8.71 0 4.42 0 0 Z M-2 13 C0 14 0 14 0 14 Z " fill="#5A5A5A" transform="translate(104,296)"/>
</svg>
